<svg xmlns="http://www.w3.org/2000/svg" xmlns:xlink="http://www.w3.org/1999/xlink" xmlns:lucid="lucid" width="1460" height="1284"><g transform="translate(-60 -20)" lucid:page-tab-id="_bUOiw_ALel3"><path d="M0 0h1870.4v1323.2H0z" fill="#fff"/><path d="M368 40c17.67 0 32 17.9 32 40s-14.33 40-32 40h-96c-17.67 0-32-17.9-32-40s14.33-40 32-40z" stroke="#000" stroke-opacity="0" stroke-width=".5" fill="#141b4d"/><use xlink:href="#a" transform="matrix(1,0,0,1,245,45) translate(22.25 27)"/><use xlink:href="#b" transform="matrix(1,0,0,1,245,45) translate(72.19444444444446 27)"/><use xlink:href="#c" transform="matrix(1,0,0,1,245,45) translate(11.30555555555555 51)"/><use xlink:href="#d" transform="matrix(1,0,0,1,245,45) translate(62.24999999999999 51)"/><path d="M568 40c17.67 0 32 17.9 32 40s-14.33 40-32 40h-96c-17.67 0-32-17.9-32-40s14.33-40 32-40z" stroke="#000" stroke-opacity="0" stroke-width=".5" fill="#141b4d"/><use xlink:href="#e" transform="matrix(1,0,0,1,445,45) translate(1.2222222222222143 27)"/><use xlink:href="#f" transform="matrix(1,0,0,1,445,45) translate(59 27)"/><use xlink:href="#g" transform="matrix(1,0,0,1,445,45) translate(10.138888888888886 51)"/><use xlink:href="#h" transform="matrix(1,0,0,1,445,45) translate(60.02777777777778 51)"/><path d="M410 186l90 70-90 70-90-70z" stroke="#000" stroke-opacity="0" stroke-width=".5" fill="#00a5df"/><use xlink:href="#i" transform="matrix(1,0,0,1,325,190.9990300216248) translate(15.518518518518505 57.888888888888886)"/><use xlink:href="#j" transform="matrix(1,0,0,1,325,190.9990300216248) translate(20.456790123456777 57.888888888888886)"/><use xlink:href="#k" transform="matrix(1,0,0,1,325,190.9990300216248) translate(40.209876543209866 57.888888888888886)"/><use xlink:href="#l" transform="matrix(1,0,0,1,325,190.9990300216248) translate(88.50617283950616 57.888888888888886)"/><use xlink:href="#m" transform="matrix(1,0,0,1,325,190.9990300216248) translate(114.1358024691358 57.888888888888886)"/><use xlink:href="#n" transform="matrix(1,0,0,1,325,190.9990300216248) translate(30.407407407407405 79.22222222222223)"/><path d="M640 196h160v120H640z" stroke="#000" stroke-opacity="0" stroke-width=".5" fill="#7fc31c"/><use xlink:href="#o" transform="matrix(1,0,0,1,645,200.9990300216248) translate(39.55555555555555 23)"/><use xlink:href="#p" transform="matrix(1,0,0,1,645,200.9990300216248) translate(17.305555555555557 47)"/><use xlink:href="#q" transform="matrix(1,0,0,1,645,200.9990300216248) translate(97.25 47)"/><use xlink:href="#r" transform="matrix(1,0,0,1,645,200.9990300216248) translate(42.333333333333336 71)"/><use xlink:href="#s" transform="matrix(1,0,0,1,645,200.9990300216248) translate(6.75 95)"/><use xlink:href="#t" transform="matrix(1,0,0,1,645,200.9990300216248) translate(98.80555555555556 95)"/><path d="M680 379h160v120H680z" stroke="#000" stroke-opacity="0" stroke-width=".5" fill="#7fc31c"/><use xlink:href="#u" transform="matrix(1,0,0,1,685,384) translate(31.77777777777778 35)"/><use xlink:href="#v" transform="matrix(1,0,0,1,685,384) translate(21.166666666666664 59)"/><use xlink:href="#w" transform="matrix(1,0,0,1,685,384) translate(0.8888888888888857 83)"/><use xlink:href="#x" transform="matrix(1,0,0,1,685,384) translate(66.33333333333333 83)"/><use xlink:href="#y" transform="matrix(1,0,0,1,685,384) translate(90.66666666666666 83)"/><path d="M449 369l91 70-91 70-91-70z" stroke="#000" stroke-opacity="0" stroke-width=".5" fill="#00a5df"/><use xlink:href="#z" transform="matrix(1,0,0,1,363,374) translate(8.098765432098759 57.888888888888886)"/><use xlink:href="#A" transform="matrix(1,0,0,1,363,374) translate(56.395061728395056 57.888888888888886)"/><use xlink:href="#B" transform="matrix(1,0,0,1,363,374) translate(127.45679012345681 57.888888888888886)"/><use xlink:href="#C" transform="matrix(1,0,0,1,363,374) translate(55.432098765432094 79.22222222222223)"/><path d="M722.67 560h160v120h-160z" stroke="#000" stroke-opacity="0" stroke-width=".5" fill="#7fc31c"/><use xlink:href="#D" transform="matrix(1,0,0,1,727.6666666666667,565) translate(19.055555555555557 47)"/><use xlink:href="#E" transform="matrix(1,0,0,1,727.6666666666667,565) translate(85.55555555555556 47)"/><use xlink:href="#F" transform="matrix(1,0,0,1,727.6666666666667,565) translate(35.58333333333333 71)"/><path d="M499.33 559l80 60-80 60-80-60z" stroke="#000" stroke-opacity="0" stroke-width=".5" fill="#00a5df"/><use xlink:href="#G" transform="matrix(1,0,0,1,424.33333333333326,564) translate(20.827160493827158 58.55555555555555)"/><use xlink:href="#H" transform="matrix(1,0,0,1,424.33333333333326,564) translate(60.18518518518518 58.55555555555555)"/><path d="M380 864h160v120c-26.72-20.04-43.36-20.04-53.44-20.04-16 0-37.28 20.04-53.28 20.04-9.92 0-26.72 0-53.28-20.04z" stroke="#000" stroke-opacity="0" stroke-width=".5" fill="#006272"/><use xlink:href="#I" transform="matrix(1,0,0,1,384.99999999999994,869.0009699783752) translate(10.138888888888886 37)"/><use xlink:href="#J" transform="matrix(1,0,0,1,384.99999999999994,869.0009699783752) translate(51.138888888888886 37)"/><use xlink:href="#K" transform="matrix(1,0,0,1,384.99999999999994,869.0009699783752) translate(51.138888888888886 61)"/><path d="M680 744h160v120c-26.72-20.04-43.36-20.04-53.44-20.04-16 0-37.28 20.04-53.28 20.04-9.92 0-26.72 0-53.28-20.04z" stroke="#000" stroke-opacity="0" stroke-width=".5" fill="#006272"/><use xlink:href="#L" transform="matrix(1,0,0,1,685,749.0009699783752) translate(29.72222222222222 37)"/><use xlink:href="#M" transform="matrix(1,0,0,1,685,749.0009699783752) translate(24.5 61)"/><path d="M900 744h160v120c-26.72-20.04-43.36-20.04-53.44-20.04-16 0-37.28 20.04-53.28 20.04-9.92 0-26.72 0-53.28-20.04z" stroke="#000" stroke-opacity="0" stroke-width=".5" fill="#006272"/><use xlink:href="#N" transform="matrix(1,0,0,1,905.0000000000001,749.0009699783752) translate(20.166666666666657 37)"/><use xlink:href="#M" transform="matrix(1,0,0,1,905.0000000000001,749.0009699783752) translate(24.5 61)"/><path d="M1120 744h160v120c-26.72-20.04-43.36-20.04-53.44-20.04-16 0-37.28 20.04-53.28 20.04-9.92 0-26.72 0-53.28-20.04z" stroke="#000" stroke-opacity="0" stroke-width=".5" fill="#006272"/><use xlink:href="#O" transform="matrix(1,0,0,1,1125,749.0009699783752) translate(17.833333333333336 37)"/><use xlink:href="#M" transform="matrix(1,0,0,1,1125,749.0009699783752) translate(24.5 61)"/><path d="M1340 744h160v120c-26.72-20.04-43.36-20.04-53.44-20.04-16 0-37.28 20.04-53.28 20.04-9.92 0-26.72 0-53.28-20.04z" stroke="#000" stroke-opacity="0" stroke-width=".5" fill="#006272"/><use xlink:href="#P" transform="matrix(1,0,0,1,1345,749.0009699783752) translate(19.55555555555555 37)"/><use xlink:href="#M" transform="matrix(1,0,0,1,1345,749.0009699783752) translate(24.5 61)"/><path d="M460 1024l80 60-80 60-80-60z" stroke="#000" stroke-opacity="0" stroke-width=".5" fill="#00a5df"/><use xlink:href="#Q" transform="matrix(1,0,0,1,384.99999999999994,1029.0009699783752) translate(32.06172839506172 47.888888888888886)"/><use xlink:href="#R" transform="matrix(1,0,0,1,384.99999999999994,1029.0009699783752) translate(51.81481481481481 47.888888888888886)"/><use xlink:href="#C" transform="matrix(1,0,0,1,384.99999999999994,1029.0009699783752) translate(44.432098765432094 69.22222222222223)"/><path d="M680 1024h160v120H680z" stroke="#000" stroke-opacity="0" stroke-width=".5" fill="#7fc31c"/><use xlink:href="#S" transform="matrix(1,0,0,1,685,1029.0009699783752) translate(29.58333333333333 23)"/><use xlink:href="#T" transform="matrix(1,0,0,1,685,1029.0009699783752) translate(24.527777777777764 47)"/><use xlink:href="#U" transform="matrix(1,0,0,1,685,1029.0009699783752) translate(35.08333333333333 71)"/><use xlink:href="#V" transform="matrix(1,0,0,1,685,1029.0009699783752) translate(42.27777777777777 95)"/><path d="M900 1024h160v120H900z" stroke="#000" stroke-opacity="0" stroke-width=".5" fill="#7fc31c"/><use xlink:href="#W" transform="matrix(1,0,0,1,905.0000000000001,1029.0009699783752) translate(20.111111111111107 47)"/><use xlink:href="#X" transform="matrix(1,0,0,1,905.0000000000001,1029.0009699783752) translate(88.88888888888889 47)"/><use xlink:href="#Y" transform="matrix(1,0,0,1,905.0000000000001,1029.0009699783752) translate(16.749999999999993 71)"/><path d="M1120 1024h160v120h-160z" stroke="#000" stroke-opacity="0" stroke-width=".5" fill="#7fc31c"/><use xlink:href="#Z" transform="matrix(1,0,0,1,1125,1029.0009699783752) translate(38.47222222222222 35)"/><use xlink:href="#aa" transform="matrix(1,0,0,1,1125,1029.0009699783752) translate(21.249999999999993 59)"/><use xlink:href="#ab" transform="matrix(1,0,0,1,1125,1029.0009699783752) translate(40.58333333333333 83)"/><path d="M1340 1024h160v120h-160z" stroke="#000" stroke-opacity="0" stroke-width=".5" fill="#7fc31c"/><use xlink:href="#ac" transform="matrix(1,0,0,1,1345,1029.0009699783752) translate(9.027777777777771 35)"/><use xlink:href="#ad" transform="matrix(1,0,0,1,1345,1029.0009699783752) translate(68.91666666666666 35)"/><use xlink:href="#ae" transform="matrix(1,0,0,1,1345,1029.0009699783752) translate(88.8611111111111 35)"/><use xlink:href="#af" transform="matrix(1,0,0,1,1345,1029.0009699783752) translate(22.888888888888893 59)"/><use xlink:href="#ag" transform="matrix(1,0,0,1,1345,1029.0009699783752) translate(102.77777777777777 59)"/><use xlink:href="#c" transform="matrix(1,0,0,1,1345,1029.0009699783752) translate(12.333333333333336 83)"/><use xlink:href="#ah" transform="matrix(1,0,0,1,1345,1029.0009699783752) translate(63.27777777777778 83)"/><path d="M208 1195.2c17.67 0 32 17.9 32 40s-14.33 40-32 40h-96c-17.67 0-32-17.9-32-40s14.33-40 32-40z" stroke="#000" stroke-opacity="0" stroke-width=".5" fill="#141b4d"/><use xlink:href="#ai" transform="matrix(1,0,0,1,85,1200.200969978375) translate(36.69444444444444 27)"/><use xlink:href="#aj" transform="matrix(1,0,0,1,85,1200.200969978375) translate(21.83333333333333 51)"/><path d="M1248 1204c17.67 0 32 17.9 32 40s-14.33 40-32 40h-96c-17.67 0-32-17.9-32-40s14.33-40 32-40z" stroke="#000" stroke-opacity="0" stroke-width=".5" fill="#141b4d"/><use xlink:href="#ak" transform="matrix(1,0,0,1,1125,1209.0009699783752) translate(35.666666666666664 27)"/><use xlink:href="#al" transform="matrix(1,0,0,1,1125,1209.0009699783752) translate(30.638888888888886 51)"/><path d="M1468 1204c17.67 0 32 17.9 32 40s-14.33 40-32 40h-96c-17.67 0-32-17.9-32-40s14.33-40 32-40z" stroke="#000" stroke-opacity="0" stroke-width=".5" fill="#141b4d"/><use xlink:href="#am" transform="matrix(1,0,0,1,1345,1209.0009699783752) translate(15.111111111111107 27)"/><use xlink:href="#an" transform="matrix(1,0,0,1,1345,1209.0009699783752) translate(66.05555555555554 27)"/><use xlink:href="#ao" transform="matrix(1,0,0,1,1345,1209.0009699783752) translate(30.08333333333333 51)"/><path d="M320 120l.32 3.55.42 2.93.5 2.47.56 2.12.6 1.84.6 1.62.65 1.43.67 1.3.7 1.16.7 1.07.73.98.76.9.8.84.84.78.87.74.93.7.98.66 1.07.62 1.14.6 1.26.56 1.38.54 1.55.5 1.76.47 2.07.43 2.5.37 3.17.3 4.5.14 28.1-.47 3.3.3 2.62.4 2.2.44 1.87.5 1.64.53 1.48.58 1.34.6 1.23.65 1.13.68 1.07.73 1 .76.96.8.9.86.88.93.85.98.8 1.1.8 1.17.76 1.3.74 1.43.73 1.6.7 1.83.22.72" stroke="#000" stroke-width="2" fill="none"/><path d="M319.02 120.2l-.04-.2H320zM409.53 182.8l-6.66-13.44 9.17-1.35z"/><path d="M410 186l-8.64-17.43 11.9-1.75zm-5.63-15.85l4.7 9.45 1.75-10.4z"/><path d="M520 120l.1 3.92-.06 3.3-.2 2.85-.26 2.46-.34 2.17-.4 1.92-.43 1.7-.45 1.56-.5 1.4-.52 1.3-.54 1.17-.57 1.1-.58 1-.6.95-.62.9-.65.83-.67.8-.68.74-.73.72-.77.67-.8.65-.84.63-.9.6-.94.58-1 .56-1.1.52-1.16.52-1.27.5-1.4.45-1.54.44-1.74.4-1.97.37-2.27.34-2.67.25-3.24.15-4.15.02-5.9-.25-34.7-2.9h-3.92l-3.05.16-2.48.23-2.1.3-1.8.35-1.58.38-1.4.4-1.28.42-1.14.44-1.06.46-.97.48-.9.5-.85.5-.78.54-.75.56-.7.57-.67.62-.63.62-.6.66-.6.7-.56.72-.54.77-.52.8-.5.88-.42.83" stroke="#000" stroke-width="2" fill="none"/><path d="M521 120.06l-1.05-.06H521zM417.64 169.58l-7.07 13.23-2.06-14.85z"/><path d="M419.17 168.84L410 186l-2.67-19.27zm-8.03 10.8l4.97-9.3-6.4-1.16z"/><path d="M720 316l-.1 1.5-.16 1.43-.2 1.35-.26 1.27-.3 1.22-.33 1.16-.37 1.1-.4 1.1-.45 1.03-.5 1-.5 1-.57.96-.6.95-.67.92-.7.9-.77.9-.82.9-.87.9-.96.9-1.04.88-1.14.9-1.26.88-1.37.9-1.5.9-1.7.9-1.87.93-2.12.9-2.4.94-2.75.94-3.17.93-3.72.94-4.4.9-5.33.86-6.56.8-8.35.62-11.08.38-15.85-.12-27.7-1.42-93.14-6.8-13.38-.1-9.03.3-6.64.5-5.1.62-4.08.66-3.33.68-2.76.7-2.33.67-2 .67-1.73.68-1.5.66-1.34.66-1.2.64-1.04.63-.95.62-.85.62-.78.6-.34.3" stroke="#000" stroke-width="2" fill="none"/><path d="M720.96 316.3l-.97-.3h1.04zM459.9 354.55L450.22 366l1.1-14.96z"/><path d="M461.56 354.14L449 369l1.42-19.4zm-10.1 8.87l6.8-8.05-6.04-2.46z"/><path d="M760 499l-.06 1.68-.12 1.57-.18 1.47-.23 1.4-.26 1.3-.3 1.25-.36 1.18-.4 1.14-.42 1.1-.46 1.04-.5 1.03-.55 1-.58.96-.62.95-.67.93-.7.92-.78.9-.83.9-.9.88-.96.88-1.04.87-1.14.88-1.24.87-1.37.88-1.5.88-1.67.88-1.86.9-2.1.88-2.36.9-2.7.9-3.13.88-3.65.88-4.33.84-5.24.8-6.47.7-8.27.56-11.1.28-16.4-.28-35.34-2.2-64.53-4.6-15.25-.25-10.12.25-7.44.5-5.76.63-4.62.7-3.8.76-3.17.76-2.7.77-2.32.76-2.02.76-1.8.76-1.57.75-1.42.75-1.27.74-1.14.74-1.04.73-.95.72-.87.73-.8.73-.74.73-.68.74-.16.2" stroke="#000" stroke-width="2" fill="none"/><path d="M760.97 499.24L760 499h1.03zM509.32 543.9l-8.95 12.03.16-15z"/><path d="M510.94 543.4l-11.6 15.6.2-19.45zm-9.54 9.47l6.3-8.47-6.2-2.08z"/><path d="M802.67 680l-.14 3.68-.38 3.22-.57 2.9-.75 2.66-.93 2.54-1.14 2.5-1.43 2.55-1.86 2.8-2.75 3.5-13.07 14.8-1.86 2.8-1.36 2.43" stroke="#000" stroke-width="2" fill="none"/><path d="M803.65 680.18l-1-.18h1.03zM780.84 727.95l-7.67 12.9-1.37-14.94z"/><path d="M782.4 727.28L772.46 744l-1.8-19.37zm-8.5 10.4l5.38-9.06-6.36-1.43z"/><path d="M802.67 680v.36l.03.36.03.35.06.35.05.35.1.36.08.35.12.36.14.36.14.37.18.38.2.4.23.4.27.4.3.43.33.45.4.46.44.5.5.5.6.57.68.6.8.63.97.7 1.15.76 1.4.84 1.7.94 2.14 1.06 2.74 1.22 3.6 1.42 4.93 1.7 7.12 2.15 11.32 2.87L869.5 708l67.73 13.03 11.3 2.88 7.12 2.15 4.93 1.7 3.6 1.43 2.74 1.22 1.46.72" stroke="#000" stroke-width="2" fill="none"/><path d="M801.88 680.6l-.48-.6h1.27zM977.83 741.6l-13-7.5 6.9-6.2z"/><path d="M980 744l-16.86-9.7 8.93-8.06zm-13.47-10.07l9.14 5.27-4.3-9.64z"/><path d="M802.67 680v.32l.03.16.02.17.03.16.04.17.04.17.05.17.06.18.07.18.1.2.1.18.1.2.13.2.15.22.2.22.2.24.22.26.26.27.32.3.37.32.44.34.54.4.64.42.78.48.98.53 1.25.62 1.6.72 2.14.84 2.94 1.03 4.2 1.26 6.3 1.6 10.2 2.15 18.53 3.08 42.43 5.2 248.83 23.34 18.52 3.1 10.2 2.13 6.3 1.6 3.7 1.1" stroke="#000" stroke-width="2" fill="none"/><path d="M802.05 680.8l-1.02-.8h1.64zM1197.33 742.18l-14.4-4.22 5.23-7.66z"/><path d="M1200 744l-18.67-5.47 6.78-9.93zm-15.47-6.6l10.13 2.95-6.45-8.35z"/><path d="M802.67 680v.2l.02.1v.12l.02.1.03.1.03.12.03.1.06.13.05.1.06.14.07.13.08.13.1.14.1.14.1.16.14.16.16.17.18.2.2.2.27.2.3.24.36.27.46.3.55.32.7.38.88.44 1.15.5 1.54.62 2.14.74 3.1.93 4.72 1.2 7.72 1.62 14.06 2.33 30.54 3.75 101.64 7.95 375.94 23.1 30.55 3.74 14.06 2.34 7.72 1.63 2.15.55" stroke="#000" stroke-width="2" fill="none"/><path d="M802.15 680.86l-1.42-.86h1.94zM1417.15 742.48l-14.77-2.63 4.36-8.18z"/><path d="M1420 744l-19.15-3.4 5.66-10.6zm-16.1-4.9l10.4 1.85-7.32-7.6z"/><path d="M760 853.77l-.1 1.4-.13 1.37-.2 1.35-.25 1.32-.3 1.33-.37 1.32-.43 1.3-.5 1.32-.54 1.32-.62 1.33-.7 1.34-.8 1.36-.87 1.4-1 1.4-1.1 1.47-1.24 1.5-1.38 1.54-1.57 1.6-1.76 1.67-2 1.73-2.3 1.82-2.62 1.9-3.03 2.02-3.53 2.14-4.12 2.27-4.87 2.42-5.8 2.58-6.97 2.77-8.48 2.97-10.46 3.16-13.02 3.35-16.38 3.5-20.67 3.5-25.84 3.28-30.68 2.6-27.15 1.2" stroke="#000" stroke-width="2" fill="none"/><path d="M760.96 854.03l-.96-.26 1.2-.6zM557.6 928.3l-14.36-4.36 14.17-4.9z"/><path d="M558.6 929.66L540 924l18.38-6.36zm-12.13-5.78l10.1 3.06-.13-6.5z"/><path d="M980 853.77v.86l-.06.85-.1.84-.1.83-.16.83-.2.83-.22.84-.26.84-.3.85-.37.85-.4.87-.46.9-.52.9-.6.94-.65.96-.75 1-.86 1.04-.98 1.1-1.1 1.13-1.28 1.2-1.46 1.28-1.7 1.37-1.98 1.46-2.33 1.56-2.78 1.7-3.33 1.84-4.04 2.03-4.98 2.24-6.22 2.5-7.93 2.8-10.34 3.18-13.8 3.6-19.06 4.14-27.3 4.73-40.96 5.34-65.08 5.7-109.83 4.97-89.3 1.1" stroke="#000" stroke-width="2" fill="none"/><path d="M980.94 854.1l-.94-.33 1.3-.66zM557.56 928.42l-14.32-4.46 14.2-4.8z"/><path d="M558.57 929.78L540 924l18.43-6.24zm-12.1-5.86l10.07 3.14-.08-6.52z"/><path d="M1200 853.77l-.05.5-.07.53-.1.5-.1.53-.15.53-.17.53-.2.53-.22.56-.26.56-.3.58-.34.6-.4.63-.43.66-.5.68-.6.73-.66.76-.77.8-.9.85-1.05.92-1.23 1-1.48 1.1-1.75 1.17-2.12 1.32-2.6 1.46-3.23 1.64-4.08 1.86-5.27 2.14-6.96 2.5-9.45 2.94-13.3 3.54-19.58 4.33-30.4 5.4-50.75 6.83-92.9 8.5-186.1 9.2-203.3 3.03" stroke="#000" stroke-width="2" fill="none"/><path d="M1200.85 854.3l-.85-.53 1.72-.87zM557.57 928.37l-14.33-4.42 14.2-4.85z"/><path d="M558.6 929.74L540 924l18.4-6.3zm-12.13-5.84l10.08 3.1-.1-6.5z"/><path d="M1420 853.77l-.03.68-.06.68-.07.68-.1.68-.16.67-.17.68-.2.68-.25.7-.27.7-.32.7-.36.73-.4.75-.47.76-.53.8-.6.82-.68.86-.77.9-.9.94-1 1-1.2 1.06-1.36 1.14-1.62 1.2-1.9 1.33-2.25 1.42-2.72 1.57-3.3 1.72-4.1 1.93-5.17 2.17-6.62 2.45-8.7 2.83-11.76 3.27-16.5 3.85-24.17 4.58-37.67 5.5-63.93 6.6-124.64 7.55-376 5.85-160.8-.18" stroke="#000" stroke-width="2" fill="none"/><path d="M1420.9 854.2l-.9-.43 1.45-.73zM557.5 928.66L543.24 924l14.27-4.62z"/><path d="M558.5 930.03L540 924l18.5-6zM546.47 924l10.03 3.28v-6.52z"/><path d="M460 973.76v32" stroke="#000" stroke-width="2" fill="none"/><path d="M461 973.76h-1l1-.5zM460 1020.76l-4.64-14.26h9.28z"/><path d="M460 1024l-6-18.5h12zm-3.26-16.5l3.26 10.03 3.26-10.03z"/><path d="M840 1084h41.76" stroke="#000" stroke-width="2" fill="none"/><path/><path d="M896.76 1084l-14.26 4.64v-9.27z"/><path d="M900 1084l-18.5 6v-12zm-16.5 3.26l10.03-3.26-10.03-3.26z"/><path d="M1060 1084h41.76" stroke="#000" stroke-width="2" fill="none"/><path/><path d="M1116.76 1084l-14.26 4.64v-9.27z"/><path d="M1120 1084l-18.5 6v-12zm-16.5 3.26l10.03-3.26-10.03-3.26z"/><path d="M1280 1084h41.76" stroke="#000" stroke-width="2" fill="none"/><path/><path d="M1336.76 1084l-14.26 4.64v-9.27z"/><path d="M1340 1084l-18.5 6v-12zm-16.5 3.26l10.03-3.26-10.03-3.26z"/><path d="M1420 1144v41.76" stroke="#000" stroke-width="2" fill="none"/><path/><path d="M1420 1200.76l-4.64-14.26h9.28z"/><path d="M1420 1204l-6-18.5h12zm-3.26-16.5l3.26 10.03 3.26-10.03z"/><path d="M600 256c0 16.57-13.43 30-30 30s-30-13.43-30-30 13.43-30 30-30 30 13.43 30 30z" stroke="#000" stroke-opacity="0" stroke-width=".5" fill="#00b140"/><use xlink:href="#ap" transform="matrix(1,0,0,1,545,230.9990300216248) translate(7.777777777777779 29)"/><path d="M280 256c0 16.57-13.43 30-30 30s-30-13.43-30-30 13.43-30 30-30 30 13.43 30 30z" stroke="#000" stroke-opacity="0" stroke-width=".5" fill="#ef3b24"/><use xlink:href="#aq" transform="matrix(1,0,0,1,225,230.9990300216248) translate(11.722222222222223 29)"/><path d="M1200 1144v41.76" stroke="#000" stroke-width="2" fill="none"/><path/><path d="M1200 1200.76l-4.64-14.26h9.28z"/><path d="M1200 1204l-6-18.5h12zm-3.26-16.5l3.26 10.03 3.26-10.03z"/><path d="M639 439c0 16.57-13.43 30-30 30s-30-13.43-30-30 13.43-30 30-30 30 13.43 30 30z" stroke="#000" stroke-opacity="0" stroke-width=".5" fill="#00b140"/><use xlink:href="#ap" transform="matrix(1,0,0,1,584,414) translate(7.777777777777779 29)"/><path d="M681 620c0 16.57-13.43 30-30 30s-30-13.43-30-30 13.43-30 30-30 30 13.43 30 30z" stroke="#000" stroke-opacity="0" stroke-width=".5" fill="#00b140"/><use xlink:href="#ap" transform="matrix(1,0,0,1,626,595) translate(7.777777777777779 29)"/><path d="M640 1084c0 16.57-13.43 30-30 30s-30-13.43-30-30 13.43-30 30-30 30 13.43 30 30z" stroke="#000" stroke-opacity="0" stroke-width=".5" fill="#00b140"/><use xlink:href="#ap" transform="matrix(1,0,0,1,585,1059) translate(7.777777777777779 29)"/><path d="M320 439c0 16.57-13.43 30-30 30s-30-13.43-30-30 13.43-30 30-30 30 13.43 30 30z" stroke="#000" stroke-opacity="0" stroke-width=".5" fill="#ef3b24"/><use xlink:href="#aq" transform="matrix(1,0,0,1,265,414) translate(11.722222222222223 29)"/><path d="M380 620c0 16.57-13.43 30-30 30s-30-13.43-30-30 13.43-30 30-30 30 13.43 30 30z" stroke="#000" stroke-opacity="0" stroke-width=".5" fill="#ef3b24"/><use xlink:href="#aq" transform="matrix(1,0,0,1,325,595) translate(11.722222222222223 29)"/><path d="M340 1084c0 16.57-13.43 30-30 30s-30-13.43-30-30 13.43-30 30-30 30 13.43 30 30z" stroke="#000" stroke-opacity="0" stroke-width=".5" fill="#ef3b24"/><use xlink:href="#aq" transform="matrix(1,0,0,1,285,1059.0009699783752) translate(11.722222222222223 29)"/><path d="M320 256h-21.76" stroke="#000" stroke-width="2" fill="none"/><path d="M320 256l1.3 1H320v-2h1.3zM297.5 260.63L283.24 256l14.26-4.64z"/><path d="M298.5 262l-18.5-6 18.5-6zm-12.03-6l10.03 3.26v-6.52z"/><path d="M500 256h21.76" stroke="#000" stroke-width="2" fill="none"/><path d="M500 257h-1.3l1.3-1-1.3-1h1.3zM536.76 256l-14.26 4.63v-9.27z"/><path d="M540 256l-18.5 6v-12zm-16.5 3.26l10.03-3.26-10.03-3.26z"/><path d="M600 256h21.76" stroke="#000" stroke-width="2" fill="none"/><path d="M600 257h-.08l.08-1-.04-1h.04zM636.76 256l-14.26 4.63v-9.27z"/><path d="M640 256l-18.5 6v-12zm-16.5 3.26l10.03-3.26-10.03-3.26z"/><path d="M639 439h22.76" stroke="#000" stroke-width="2" fill="none"/><path d="M639 440h-.08l.08-1-.04-1h.04zM676.76 439l-14.26 4.64v-9.28z"/><path d="M680 439l-18.5 6v-12zm-16.5 3.26l10.03-3.26-10.03-3.26z"/><path d="M681 620h23.43" stroke="#000" stroke-width="2" fill="none"/><path d="M681 621h-.08l.08-1-.04-1h.04zM719.43 620l-14.27 4.64v-9.28z"/><path d="M722.67 620l-18.5 6v-12zm-16.5 3.26l10.02-3.26-10.04-3.26z"/><path d="M540 439h20.76" stroke="#000" stroke-width="2" fill="none"/><path d="M540 440h-1.3l1.3-1-1.3-1h1.3zM575.76 439l-14.26 4.64v-9.28z"/><path d="M579 439l-18.5 6v-12zm-16.5 3.26l10.03-3.26-10.03-3.26z"/><path d="M579.33 619h20.84v1h2.6" stroke="#000" stroke-width="2" fill="none"/><path d="M579.33 620H578l1.33-1-1.33-1h1.33zM617.76 620l-14.26 4.64v-9.28z"/><path d="M621 620l-18.5 6v-12zm-16.5 3.26l10.03-3.26-10.03-3.26z"/><path d="M358 439h-19.76" stroke="#000" stroke-width="2" fill="none"/><path d="M358 439l1.3 1H358v-2h1.3zM337.5 443.64L323.24 439l14.26-4.64z"/><path d="M338.5 445l-18.5-6 18.5-6zm-12.03-6l10.03 3.26v-6.52z"/><path d="M419.33 619H398.2" stroke="#000" stroke-width="2" fill="none"/><path d="M419.33 619l1.34 1h-1.34v-2h1.34zM397.47 623.64L383.2 619l14.27-4.64z"/><path d="M398.47 625l-18.5-6 18.5-6zm-12.03-6l10.03 3.26v-6.52z"/><path d="M540 1084h21.76" stroke="#000" stroke-width="2" fill="none"/><path d="M540 1085h-1.33l1.33-1-1.33-1H540zM576.76 1084l-14.26 4.64v-9.28z"/><path d="M580 1084l-18.5 6v-12zm-16.5 3.26l10.03-3.26-10.03-3.26z"/><path d="M380 1084h-21.76" stroke="#000" stroke-width="2" fill="none"/><path d="M380 1084l1.33 1H380v-2h1.33zM357.5 1088.64l-14.26-4.64 14.26-4.63z"/><path d="M358.5 1090l-18.5-6 18.5-6zm-12.03-6l10.03 3.26v-6.52z"/><path d="M280 1084H160v92.96" stroke="#000" stroke-width="2" fill="none"/><path d="M280 1084l.04 1H280v-2h.08zM160 1191.96l-4.64-14.26h9.28z"/><path d="M160 1195.2l-6-18.5h12zm-3.26-16.5l3.26 10.03 3.26-10.03z"/><path d="M320 620H160v556.96" stroke="#000" stroke-width="2" fill="none"/><path d="M320 620l.04 1H320v-2h.08zM160 1191.96l-4.64-14.26h9.28z"/><path d="M160 1195.2l-6-18.5h12zm-3.26-16.5l3.26 10.03 3.26-10.03z"/><path d="M260 439H160v737.96" stroke="#000" stroke-width="2" fill="none"/><path d="M260 439l.04 1H260v-2h.08zM160 1191.96l-4.64-14.26h9.28z"/><path d="M160 1195.2l-6-18.5h12zm-3.26-16.5l3.26 10.03 3.26-10.03z"/><path d="M220 256h-60v920.96" stroke="#000" stroke-width="2" fill="none"/><path d="M220 256l.04 1H220v-2h.08zM160 1191.96l-4.64-14.26h9.28z"/><path d="M160 1195.2l-6-18.5h12zm-3.26-16.5l3.26 10.03 3.26-10.03z"/><path d="M640 1084h21.76" stroke="#000" stroke-width="2" fill="none"/><path d="M640 1085h-.08l.08-1-.04-1h.04zM676.76 1084l-14.26 4.64v-9.28z"/><path d="M680 1084l-18.5 6v-12zm-16.5 3.26l10.03-3.26-10.03-3.26z"/><defs><path fill="#fff" d="M238-95c0 69-44 99-111 99C63 4 22-25 22-93v-155h51v151c-1 38 19 59 55 60 90 1 49-130 58-211h52v153" id="ar"/><path fill="#fff" d="M137-138c1-29-70-34-71-4 15 46 118 7 119 86 1 83-164 76-172 9l43-7c4 19 20 25 44 25 33 8 57-30 24-41C81-84 22-81 20-136c-2-80 154-74 161-7" id="as"/><path fill="#fff" d="M185-48c-13 30-37 53-82 52C43 2 14-33 14-96s30-98 90-98c62 0 83 45 84 108H66c0 31 8 55 39 56 18 0 30-7 34-22zm-45-69c5-46-57-63-70-21-2 6-4 13-4 21h74" id="at"/><path fill="#fff" d="M135-150c-39-12-60 13-60 57V0H25l-1-190h47c2 13-1 29 3 40 6-28 27-53 61-41v41" id="au"/><g id="a"><use transform="matrix(0.05555555555555555,0,0,0.05555555555555555,0,0)" xlink:href="#ar"/><use transform="matrix(0.05555555555555555,0,0,0.05555555555555555,14.388888888888888,0)" xlink:href="#as"/><use transform="matrix(0.05555555555555555,0,0,0.05555555555555555,25.5,0)" xlink:href="#at"/><use transform="matrix(0.05555555555555555,0,0,0.05555555555555555,36.611111111111114,0)" xlink:href="#au"/></g><path fill="#fff" d="M147 0L96-86 75-71V0H25v-261h50v150l67-79h53l-66 74L201 0h-54" id="av"/><g id="b"><use transform="matrix(0.05555555555555555,0,0,0.05555555555555555,0,0)" xlink:href="#as"/><use transform="matrix(0.05555555555555555,0,0,0.05555555555555555,11.11111111111111,0)" xlink:href="#at"/><use transform="matrix(0.05555555555555555,0,0,0.05555555555555555,22.22222222222222,0)" xlink:href="#at"/><use transform="matrix(0.05555555555555555,0,0,0.05555555555555555,33.33333333333333,0)" xlink:href="#av"/><use transform="matrix(0.05555555555555555,0,0,0.05555555555555555,44.44444444444444,0)" xlink:href="#as"/></g><path fill="#fff" d="M240-174c0 40-23 61-54 70L253 0h-59l-57-94H76V0H24v-248c93 4 217-23 216 74zM76-134c48-2 112 12 112-38 0-48-66-32-112-35v73" id="aw"/><path fill="#fff" d="M67-125c0 53 21 87 73 88 37 1 54-22 65-47l45 17C233-25 199 4 140 4 58 4 20-42 15-125 8-235 124-281 211-232c18 10 29 29 36 50l-46 12c-8-25-30-41-62-41-52 0-71 34-72 86" id="ax"/><path fill="#fff" d="M230 0l2-204L168 0h-37L68-204 70 0H24v-248h70l56 185 57-185h69V0h-46" id="ay"/><g id="c"><use transform="matrix(0.05555555555555555,0,0,0.05555555555555555,0,0)" xlink:href="#aw"/><use transform="matrix(0.05555555555555555,0,0,0.05555555555555555,14.388888888888888,0)" xlink:href="#ax"/><use transform="matrix(0.05555555555555555,0,0,0.05555555555555555,28.777777777777775,0)" xlink:href="#ay"/></g><path fill="#fff" d="M135-194c52 0 70 43 70 98 0 56-19 99-73 100-30 1-46-15-58-35L72 0H24l1-261h50v104c11-23 29-37 60-37zM114-30c31 0 40-27 40-66 0-37-7-63-39-63s-41 28-41 65c0 36 8 64 40 64" id="az"/><path fill="#fff" d="M135-194c87-1 58 113 63 194h-50c-7-57 23-157-34-157-59 0-34 97-39 157H25l-1-190h47c2 12-1 28 3 38 12-26 28-41 61-42" id="aA"/><path fill="#fff" d="M121-226c-27-7-43 5-38 36h38v33H83V0H34v-157H6v-33h28c-9-59 32-81 87-68v32" id="aB"/><path fill="#fff" d="M25-224v-37h50v37H25zM25 0v-190h50V0H25" id="aC"/><path fill="#fff" d="M115-3C79 11 28 4 28-45v-112H4v-33h27l15-45h31v45h36v33H77v99c-1 23 16 31 38 25v30" id="aD"/><g id="d"><use transform="matrix(0.05555555555555555,0,0,0.05555555555555555,0,0)" xlink:href="#az"/><use transform="matrix(0.05555555555555555,0,0,0.05555555555555555,12.166666666666666,0)" xlink:href="#at"/><use transform="matrix(0.05555555555555555,0,0,0.05555555555555555,23.27777777777778,0)" xlink:href="#aA"/><use transform="matrix(0.05555555555555555,0,0,0.05555555555555555,35.44444444444444,0)" xlink:href="#at"/><use transform="matrix(0.05555555555555555,0,0,0.05555555555555555,46.55555555555556,0)" xlink:href="#aB"/><use transform="matrix(0.05555555555555555,0,0,0.05555555555555555,53.16666666666667,0)" xlink:href="#aC"/><use transform="matrix(0.05555555555555555,0,0,0.05555555555555555,58.72222222222223,0)" xlink:href="#aD"/><use transform="matrix(0.05555555555555555,0,0,0.05555555555555555,65.33333333333334,0)" xlink:href="#as"/></g><path fill="#fff" d="M169-182c-1-43-94-46-97-3 18 66 151 10 154 114 3 95-165 93-204 36-6-8-10-19-12-30l50-8c3 46 112 56 116 5-17-69-150-10-154-114-4-87 153-88 188-35 5 8 8 18 10 28" id="aE"/><path fill="#fff" d="M133-34C117-15 103 5 69 4 32 3 11-16 11-54c-1-60 55-63 116-61 1-26-3-47-28-47-18 1-26 9-28 27l-52-2c7-38 36-58 82-57s74 22 75 68l1 82c-1 14 12 18 25 15v27c-30 8-71 5-69-32zm-48 3c29 0 43-24 42-57-32 0-66-3-65 30 0 17 8 27 23 27" id="aF"/><path fill="#fff" d="M25 0v-261h50V0H25" id="aG"/><g id="e"><use transform="matrix(0.05555555555555555,0,0,0.05555555555555555,0,0)" xlink:href="#aE"/><use transform="matrix(0.05555555555555555,0,0,0.05555555555555555,13.333333333333332,0)" xlink:href="#aF"/><use transform="matrix(0.05555555555555555,0,0,0.05555555555555555,24.444444444444443,0)" xlink:href="#aG"/><use transform="matrix(0.05555555555555555,0,0,0.05555555555555555,30,0)" xlink:href="#at"/><use transform="matrix(0.05555555555555555,0,0,0.05555555555555555,41.111111111111114,0)" xlink:href="#as"/></g><path fill="#fff" d="M135-194c53 0 70 44 70 98 0 56-19 98-73 100-31 1-45-17-59-34 3 33 2 69 2 105H25l-1-265h48c2 10 0 23 3 31 11-24 29-35 60-35zM114-30c33 0 39-31 40-66 0-38-9-64-40-64-56 0-55 130 0 130" id="aH"/><path fill="#fff" d="M110-194c64 0 96 36 96 99 0 64-35 99-97 99-61 0-95-36-95-99 0-62 34-99 96-99zm-1 164c35 0 45-28 45-65 0-40-10-65-43-65-34 0-45 26-45 65 0 36 10 65 43 65" id="aI"/><path fill="#fff" d="M190-63c-7 42-38 67-86 67-59 0-84-38-90-98-12-110 154-137 174-36l-49 2c-2-19-15-32-35-32-30 0-35 28-38 64-6 74 65 87 74 30" id="aJ"/><path fill="#fff" d="M114-157C55-157 80-60 75 0H25v-261h50l-1 109c12-26 28-41 61-42 86-1 58 113 63 194h-50c-7-57 23-157-34-157" id="aK"/><g id="f"><use transform="matrix(0.05555555555555555,0,0,0.05555555555555555,0,0)" xlink:href="#aF"/><use transform="matrix(0.05555555555555555,0,0,0.05555555555555555,11.11111111111111,0)" xlink:href="#aH"/><use transform="matrix(0.05555555555555555,0,0,0.05555555555555555,23.27777777777778,0)" xlink:href="#aH"/><use transform="matrix(0.05555555555555555,0,0,0.05555555555555555,35.44444444444444,0)" xlink:href="#au"/><use transform="matrix(0.05555555555555555,0,0,0.05555555555555555,43.22222222222222,0)" xlink:href="#aI"/><use transform="matrix(0.05555555555555555,0,0,0.05555555555555555,55.388888888888886,0)" xlink:href="#aF"/><use transform="matrix(0.05555555555555555,0,0,0.05555555555555555,66.5,0)" xlink:href="#aJ"/><use transform="matrix(0.05555555555555555,0,0,0.05555555555555555,77.61111111111111,0)" xlink:href="#aK"/></g><path fill="#fff" d="M220-157c-53 9-28 100-34 157h-49v-107c1-27-5-49-29-50C55-147 81-57 75 0H25l-1-190h47c2 12-1 28 3 38 10-53 101-56 108 0 13-22 24-43 59-42 82 1 51 116 57 194h-49v-107c-1-25-5-48-29-50" id="aL"/><g id="g"><use transform="matrix(0.05555555555555555,0,0,0.05555555555555555,0,0)" xlink:href="#aB"/><use transform="matrix(0.05555555555555555,0,0,0.05555555555555555,6.611111111111111,0)" xlink:href="#au"/><use transform="matrix(0.05555555555555555,0,0,0.05555555555555555,14.388888888888888,0)" xlink:href="#aI"/><use transform="matrix(0.05555555555555555,0,0,0.05555555555555555,26.555555555555557,0)" xlink:href="#aL"/></g><path fill="#fff" d="M85 4C-2 5 27-109 22-190h50c7 57-23 150 33 157 60-5 35-97 40-157h50l1 190h-47c-2-12 1-28-3-38-12 25-28 42-61 42" id="aM"/><g id="h"><use transform="matrix(0.05555555555555555,0,0,0.05555555555555555,0,0)" xlink:href="#aE"/><use transform="matrix(0.05555555555555555,0,0,0.05555555555555555,13.333333333333332,0)" xlink:href="#aM"/><use transform="matrix(0.05555555555555555,0,0,0.05555555555555555,25.5,0)" xlink:href="#aH"/><use transform="matrix(0.05555555555555555,0,0,0.05555555555555555,37.666666666666664,0)" xlink:href="#aH"/><use transform="matrix(0.05555555555555555,0,0,0.05555555555555555,49.83333333333333,0)" xlink:href="#aG"/><use transform="matrix(0.05555555555555555,0,0,0.05555555555555555,55.388888888888886,0)" xlink:href="#aC"/><use transform="matrix(0.05555555555555555,0,0,0.05555555555555555,60.94444444444444,0)" xlink:href="#at"/><use transform="matrix(0.05555555555555555,0,0,0.05555555555555555,72.05555555555556,0)" xlink:href="#au"/></g><path fill="#fff" d="M24 0v-248h52V0H24" id="aN"/><g id="j"><use transform="matrix(0.04938271604938272,0,0,0.04938271604938272,0,0)" xlink:href="#aN"/><use transform="matrix(0.04938271604938272,0,0,0.04938271604938272,4.938271604938272,0)" xlink:href="#as"/></g><g id="k"><use transform="matrix(0.04938271604938272,0,0,0.04938271604938272,0,0)" xlink:href="#aD"/><use transform="matrix(0.04938271604938272,0,0,0.04938271604938272,5.8765432098765435,0)" xlink:href="#aK"/><use transform="matrix(0.04938271604938272,0,0,0.04938271604938272,16.691358024691358,0)" xlink:href="#at"/><use transform="matrix(0.04938271604938272,0,0,0.04938271604938272,26.567901234567902,0)" xlink:href="#au"/><use transform="matrix(0.04938271604938272,0,0,0.04938271604938272,33.48148148148148,0)" xlink:href="#at"/></g><g id="l"><use transform="matrix(0.04938271604938272,0,0,0.04938271604938272,0,0)" xlink:href="#aF"/><use transform="matrix(0.04938271604938272,0,0,0.04938271604938272,9.876543209876544,0)" xlink:href="#aA"/></g><g id="m"><use transform="matrix(0.04938271604938272,0,0,0.04938271604938272,0,0)" xlink:href="#aw"/><use transform="matrix(0.04938271604938272,0,0,0.04938271604938272,12.790123456790125,0)" xlink:href="#ax"/><use transform="matrix(0.04938271604938272,0,0,0.04938271604938272,25.58024691358025,0)" xlink:href="#ay"/></g><path fill="#fff" d="M123 10C108 53 80 86 19 72V37c35 8 53-11 59-39L3-190h52l48 148c12-52 28-100 44-148h51" id="aO"/><path fill="#fff" d="M110-251c83-7 118 89 53 130-17 10-36 21-38 46H78c2-56 65-53 71-103 2-21-15-35-38-34-25 1-41 14-44 38l-50-2c6-48 39-70 93-75zM77 0v-47h51V0H77" id="aP"/><g id="n"><use transform="matrix(0.04938271604938272,0,0,0.04938271604938272,0,0)" xlink:href="#aI"/><use transform="matrix(0.04938271604938272,0,0,0.04938271604938272,10.814814814814815,0)" xlink:href="#aH"/><use transform="matrix(0.04938271604938272,0,0,0.04938271604938272,21.62962962962963,0)" xlink:href="#aH"/><use transform="matrix(0.04938271604938272,0,0,0.04938271604938272,32.44444444444444,0)" xlink:href="#aI"/><use transform="matrix(0.04938271604938272,0,0,0.04938271604938272,43.25925925925926,0)" xlink:href="#au"/><use transform="matrix(0.04938271604938272,0,0,0.04938271604938272,50.17283950617284,0)" xlink:href="#aD"/><use transform="matrix(0.04938271604938272,0,0,0.04938271604938272,56.04938271604939,0)" xlink:href="#aM"/><use transform="matrix(0.04938271604938272,0,0,0.04938271604938272,66.8641975308642,0)" xlink:href="#aA"/><use transform="matrix(0.04938271604938272,0,0,0.04938271604938272,77.67901234567901,0)" xlink:href="#aC"/><use transform="matrix(0.04938271604938272,0,0,0.04938271604938272,82.61728395061729,0)" xlink:href="#aD"/><use transform="matrix(0.04938271604938272,0,0,0.04938271604938272,88.49382716049384,0)" xlink:href="#aO"/><use transform="matrix(0.04938271604938272,0,0,0.04938271604938272,98.37037037037038,0)" xlink:href="#aP"/></g><path fill="#fff" d="M88-194c31-1 46 15 58 34l-1-101h50l1 261h-48c-2-10 0-23-3-31C134-8 116 4 84 4 32 4 16-41 15-95c0-56 19-97 73-99zm17 164c33 0 40-30 41-66 1-37-9-64-41-64s-38 30-39 65c0 43 13 65 39 65" id="aQ"/><g id="o"><use transform="matrix(0.05555555555555555,0,0,0.05555555555555555,0,0)" xlink:href="#aN"/><use transform="matrix(0.05555555555555555,0,0,0.05555555555555555,5.555555555555555,0)" xlink:href="#aQ"/><use transform="matrix(0.05555555555555555,0,0,0.05555555555555555,17.72222222222222,0)" xlink:href="#at"/><use transform="matrix(0.05555555555555555,0,0,0.05555555555555555,28.833333333333332,0)" xlink:href="#aA"/><use transform="matrix(0.05555555555555555,0,0,0.05555555555555555,41,0)" xlink:href="#aD"/><use transform="matrix(0.05555555555555555,0,0,0.05555555555555555,47.611111111111114,0)" xlink:href="#aC"/><use transform="matrix(0.05555555555555555,0,0,0.05555555555555555,53.16666666666667,0)" xlink:href="#aB"/><use transform="matrix(0.05555555555555555,0,0,0.05555555555555555,59.777777777777786,0)" xlink:href="#aO"/></g><g id="p"><use transform="matrix(0.05555555555555555,0,0,0.05555555555555555,0,0)" xlink:href="#as"/><use transform="matrix(0.05555555555555555,0,0,0.05555555555555555,11.11111111111111,0)" xlink:href="#aJ"/><use transform="matrix(0.05555555555555555,0,0,0.05555555555555555,22.22222222222222,0)" xlink:href="#aK"/><use transform="matrix(0.05555555555555555,0,0,0.05555555555555555,34.388888888888886,0)" xlink:href="#at"/><use transform="matrix(0.05555555555555555,0,0,0.05555555555555555,45.5,0)" xlink:href="#aL"/><use transform="matrix(0.05555555555555555,0,0,0.05555555555555555,63.27777777777777,0)" xlink:href="#at"/></g><g id="q"><use transform="matrix(0.05555555555555555,0,0,0.05555555555555555,0,0)" xlink:href="#aF"/><use transform="matrix(0.05555555555555555,0,0,0.05555555555555555,11.11111111111111,0)" xlink:href="#aA"/><use transform="matrix(0.05555555555555555,0,0,0.05555555555555555,23.27777777777778,0)" xlink:href="#aQ"/></g><g id="r"><use transform="matrix(0.05555555555555555,0,0,0.05555555555555555,0,0)" xlink:href="#aI"/><use transform="matrix(0.05555555555555555,0,0,0.05555555555555555,12.166666666666666,0)" xlink:href="#aM"/><use transform="matrix(0.05555555555555555,0,0,0.05555555555555555,24.333333333333332,0)" xlink:href="#aD"/><use transform="matrix(0.05555555555555555,0,0,0.05555555555555555,30.944444444444443,0)" xlink:href="#aG"/><use transform="matrix(0.05555555555555555,0,0,0.05555555555555555,36.5,0)" xlink:href="#aC"/><use transform="matrix(0.05555555555555555,0,0,0.05555555555555555,42.05555555555556,0)" xlink:href="#aA"/><use transform="matrix(0.05555555555555555,0,0,0.05555555555555555,54.22222222222222,0)" xlink:href="#at"/></g><g id="s"><use transform="matrix(0.05555555555555555,0,0,0.05555555555555555,0,0)" xlink:href="#az"/><use transform="matrix(0.05555555555555555,0,0,0.05555555555555555,12.166666666666666,0)" xlink:href="#aM"/><use transform="matrix(0.05555555555555555,0,0,0.05555555555555555,24.333333333333332,0)" xlink:href="#as"/><use transform="matrix(0.05555555555555555,0,0,0.05555555555555555,35.44444444444444,0)" xlink:href="#aC"/><use transform="matrix(0.05555555555555555,0,0,0.05555555555555555,41,0)" xlink:href="#aA"/><use transform="matrix(0.05555555555555555,0,0,0.05555555555555555,53.166666666666664,0)" xlink:href="#at"/><use transform="matrix(0.05555555555555555,0,0,0.05555555555555555,64.27777777777777,0)" xlink:href="#as"/><use transform="matrix(0.05555555555555555,0,0,0.05555555555555555,75.38888888888889,0)" xlink:href="#as"/></g><g id="t"><use transform="matrix(0.05555555555555555,0,0,0.05555555555555555,0,0)" xlink:href="#aJ"/><use transform="matrix(0.05555555555555555,0,0,0.05555555555555555,11.11111111111111,0)" xlink:href="#aF"/><use transform="matrix(0.05555555555555555,0,0,0.05555555555555555,22.22222222222222,0)" xlink:href="#as"/><use transform="matrix(0.05555555555555555,0,0,0.05555555555555555,33.33333333333333,0)" xlink:href="#at"/></g><g id="u"><use transform="matrix(0.05555555555555555,0,0,0.05555555555555555,0,0)" xlink:href="#ax"/><use transform="matrix(0.05555555555555555,0,0,0.05555555555555555,14.388888888888888,0)" xlink:href="#aI"/><use transform="matrix(0.05555555555555555,0,0,0.05555555555555555,26.555555555555554,0)" xlink:href="#aA"/><use transform="matrix(0.05555555555555555,0,0,0.05555555555555555,38.72222222222222,0)" xlink:href="#as"/><use transform="matrix(0.05555555555555555,0,0,0.05555555555555555,49.83333333333333,0)" xlink:href="#aC"/><use transform="matrix(0.05555555555555555,0,0,0.05555555555555555,55.388888888888886,0)" xlink:href="#aQ"/><use transform="matrix(0.05555555555555555,0,0,0.05555555555555555,67.55555555555556,0)" xlink:href="#at"/><use transform="matrix(0.05555555555555555,0,0,0.05555555555555555,78.66666666666667,0)" xlink:href="#au"/></g><g id="v"><use transform="matrix(0.05555555555555555,0,0,0.05555555555555555,0,0)" xlink:href="#aH"/><use transform="matrix(0.05555555555555555,0,0,0.05555555555555555,12.166666666666666,0)" xlink:href="#au"/><use transform="matrix(0.05555555555555555,0,0,0.05555555555555555,19.944444444444443,0)" xlink:href="#at"/><use transform="matrix(0.05555555555555555,0,0,0.05555555555555555,31.055555555555554,0)" xlink:href="#aG"/><use transform="matrix(0.05555555555555555,0,0,0.05555555555555555,36.61111111111111,0)" xlink:href="#aC"/><use transform="matrix(0.05555555555555555,0,0,0.05555555555555555,42.166666666666664,0)" xlink:href="#aL"/><use transform="matrix(0.05555555555555555,0,0,0.05555555555555555,59.94444444444444,0)" xlink:href="#aC"/><use transform="matrix(0.05555555555555555,0,0,0.05555555555555555,65.5,0)" xlink:href="#aA"/><use transform="matrix(0.05555555555555555,0,0,0.05555555555555555,77.66666666666667,0)" xlink:href="#aF"/><use transform="matrix(0.05555555555555555,0,0,0.05555555555555555,88.77777777777779,0)" xlink:href="#au"/><use transform="matrix(0.05555555555555555,0,0,0.05555555555555555,96.55555555555556,0)" xlink:href="#aO"/></g><path fill="#fff" d="M186 0v-106H76V0H24v-248h52v99h110v-99h50V0h-50" id="aR"/><g id="w"><use transform="matrix(0.05555555555555555,0,0,0.05555555555555555,0,0)" xlink:href="#aR"/><use transform="matrix(0.05555555555555555,0,0,0.05555555555555555,14.388888888888888,0)" xlink:href="#at"/><use transform="matrix(0.05555555555555555,0,0,0.05555555555555555,25.5,0)" xlink:href="#aF"/><use transform="matrix(0.05555555555555555,0,0,0.05555555555555555,36.611111111111114,0)" xlink:href="#aQ"/><use transform="matrix(0.05555555555555555,0,0,0.05555555555555555,48.77777777777778,0)" xlink:href="#as"/></g><g id="x"><use transform="matrix(0.05555555555555555,0,0,0.05555555555555555,0,0)" xlink:href="#aI"/><use transform="matrix(0.05555555555555555,0,0,0.05555555555555555,12.166666666666666,0)" xlink:href="#aB"/></g><path fill="#fff" d="M136-208V0H84v-208H4v-40h212v40h-80" id="aS"/><g id="y"><use transform="matrix(0.05555555555555555,0,0,0.05555555555555555,0,0)" xlink:href="#aS"/><use transform="matrix(0.05555555555555555,0,0,0.05555555555555555,10.666666666666666,0)" xlink:href="#at"/><use transform="matrix(0.05555555555555555,0,0,0.05555555555555555,21.77777777777778,0)" xlink:href="#au"/><use transform="matrix(0.05555555555555555,0,0,0.05555555555555555,29.55555555555556,0)" xlink:href="#aL"/><use transform="matrix(0.05555555555555555,0,0,0.05555555555555555,47.333333333333336,0)" xlink:href="#as"/></g><path fill="#fff" d="M24-248c120-7 223 5 221 122C244-46 201 0 124 0H24v-248zM76-40c74 7 117-18 117-86 0-67-45-88-117-82v168" id="aT"/><g id="z"><use transform="matrix(0.04938271604938272,0,0,0.04938271604938272,0,0)" xlink:href="#aT"/><use transform="matrix(0.04938271604938272,0,0,0.04938271604938272,12.790123456790125,0)" xlink:href="#aI"/><use transform="matrix(0.04938271604938272,0,0,0.04938271604938272,23.60493827160494,0)" xlink:href="#at"/><use transform="matrix(0.04938271604938272,0,0,0.04938271604938272,33.48148148148148,0)" xlink:href="#as"/></g><g id="A"><use transform="matrix(0.04938271604938272,0,0,0.04938271604938272,0,0)" xlink:href="#as"/><use transform="matrix(0.04938271604938272,0,0,0.04938271604938272,9.876543209876544,0)" xlink:href="#aJ"/><use transform="matrix(0.04938271604938272,0,0,0.04938271604938272,19.75308641975309,0)" xlink:href="#aK"/><use transform="matrix(0.04938271604938272,0,0,0.04938271604938272,30.567901234567906,0)" xlink:href="#at"/><use transform="matrix(0.04938271604938272,0,0,0.04938271604938272,40.44444444444445,0)" xlink:href="#aL"/><use transform="matrix(0.04938271604938272,0,0,0.04938271604938272,56.24691358024692,0)" xlink:href="#at"/></g><g id="B"><use transform="matrix(0.04938271604938272,0,0,0.04938271604938272,0,0)" xlink:href="#aG"/><use transform="matrix(0.04938271604938272,0,0,0.04938271604938272,4.938271604938272,0)" xlink:href="#aI"/><use transform="matrix(0.04938271604938272,0,0,0.04938271604938272,15.753086419753087,0)" xlink:href="#aI"/><use transform="matrix(0.04938271604938272,0,0,0.04938271604938272,26.567901234567902,0)" xlink:href="#av"/></g><path fill="#fff" d="M128 0H69L1-190h53L99-40l48-150h52" id="aU"/><g id="C"><use transform="matrix(0.04938271604938272,0,0,0.04938271604938272,0,0)" xlink:href="#aU"/><use transform="matrix(0.04938271604938272,0,0,0.04938271604938272,9.876543209876544,0)" xlink:href="#aC"/><use transform="matrix(0.04938271604938272,0,0,0.04938271604938272,14.814814814814817,0)" xlink:href="#aF"/><use transform="matrix(0.04938271604938272,0,0,0.04938271604938272,24.69135802469136,0)" xlink:href="#az"/><use transform="matrix(0.04938271604938272,0,0,0.04938271604938272,35.50617283950618,0)" xlink:href="#aG"/><use transform="matrix(0.04938271604938272,0,0,0.04938271604938272,40.44444444444445,0)" xlink:href="#at"/><use transform="matrix(0.04938271604938272,0,0,0.04938271604938272,50.320987654320994,0)" xlink:href="#aP"/></g><g id="D"><use transform="matrix(0.05555555555555555,0,0,0.05555555555555555,0,0)" xlink:href="#aT"/><use transform="matrix(0.05555555555555555,0,0,0.05555555555555555,14.388888888888888,0)" xlink:href="#at"/><use transform="matrix(0.05555555555555555,0,0,0.05555555555555555,25.5,0)" xlink:href="#aB"/><use transform="matrix(0.05555555555555555,0,0,0.05555555555555555,32.111111111111114,0)" xlink:href="#aC"/><use transform="matrix(0.05555555555555555,0,0,0.05555555555555555,37.66666666666667,0)" xlink:href="#aA"/><use transform="matrix(0.05555555555555555,0,0,0.05555555555555555,49.833333333333336,0)" xlink:href="#at"/></g><g id="E"><use transform="matrix(0.05555555555555555,0,0,0.05555555555555555,0,0)" xlink:href="#aw"/><use transform="matrix(0.05555555555555555,0,0,0.05555555555555555,14.388888888888888,0)" xlink:href="#ax"/><use transform="matrix(0.05555555555555555,0,0,0.05555555555555555,28.777777777777775,0)" xlink:href="#ay"/></g><g id="F"><use transform="matrix(0.05555555555555555,0,0,0.05555555555555555,0,0)" xlink:href="#aG"/><use transform="matrix(0.05555555555555555,0,0,0.05555555555555555,5.555555555555555,0)" xlink:href="#aC"/><use transform="matrix(0.05555555555555555,0,0,0.05555555555555555,11.11111111111111,0)" xlink:href="#aB"/><use transform="matrix(0.05555555555555555,0,0,0.05555555555555555,17.72222222222222,0)" xlink:href="#at"/><use transform="matrix(0.05555555555555555,0,0,0.05555555555555555,28.833333333333332,0)" xlink:href="#aJ"/><use transform="matrix(0.05555555555555555,0,0,0.05555555555555555,39.94444444444444,0)" xlink:href="#aO"/><use transform="matrix(0.05555555555555555,0,0,0.05555555555555555,51.05555555555556,0)" xlink:href="#aJ"/><use transform="matrix(0.05555555555555555,0,0,0.05555555555555555,62.16666666666668,0)" xlink:href="#aG"/><use transform="matrix(0.05555555555555555,0,0,0.05555555555555555,67.72222222222223,0)" xlink:href="#at"/></g><g id="G"><use transform="matrix(0.04938271604938272,0,0,0.04938271604938272,0,0)" xlink:href="#aR"/><use transform="matrix(0.04938271604938272,0,0,0.04938271604938272,12.790123456790125,0)" xlink:href="#aI"/><use transform="matrix(0.04938271604938272,0,0,0.04938271604938272,23.60493827160494,0)" xlink:href="#aS"/></g><path fill="#fff" d="M195-6C206 82 75 100 31 46c-4-6-6-13-8-21l49-6c3 16 16 24 34 25 40 0 42-37 40-79-11 22-30 35-61 35-53 0-70-43-70-97 0-56 18-96 73-97 30 0 46 14 59 34l2-30h47zm-90-29c32 0 41-27 41-63 0-35-9-62-40-62-32 0-39 29-40 63 0 36 9 62 39 62" id="aV"/><g id="H"><use transform="matrix(0.04938271604938272,0,0,0.04938271604938272,0,0)" xlink:href="#aF"/><use transform="matrix(0.04938271604938272,0,0,0.04938271604938272,9.876543209876544,0)" xlink:href="#aV"/><use transform="matrix(0.04938271604938272,0,0,0.04938271604938272,20.69135802469136,0)" xlink:href="#au"/><use transform="matrix(0.04938271604938272,0,0,0.04938271604938272,27.604938271604947,0)" xlink:href="#at"/><use transform="matrix(0.04938271604938272,0,0,0.04938271604938272,37.48148148148149,0)" xlink:href="#at"/><use transform="matrix(0.04938271604938272,0,0,0.04938271604938272,47.35802469135803,0)" xlink:href="#aQ"/><use transform="matrix(0.04938271604938272,0,0,0.04938271604938272,58.17283950617284,0)" xlink:href="#aP"/></g><path fill="#fff" d="M76-208v77h127v40H76V0H24v-248h183v40H76" id="aW"/><g id="I"><use transform="matrix(0.05555555555555555,0,0,0.05555555555555555,0,0)" xlink:href="#aW"/><use transform="matrix(0.05555555555555555,0,0,0.05555555555555555,12.166666666666666,0)" xlink:href="#aM"/><use transform="matrix(0.05555555555555555,0,0,0.05555555555555555,24.333333333333332,0)" xlink:href="#aG"/><use transform="matrix(0.05555555555555555,0,0,0.05555555555555555,29.888888888888886,0)" xlink:href="#aG"/></g><path fill="#fff" d="M182-130c37 4 62 22 62 59C244 23 116-4 24 0v-248c84 5 203-23 205 63 0 31-19 50-47 55zM76-148c40-3 101 13 101-30 0-44-60-28-101-31v61zm0 110c48-3 116 14 116-37 0-48-69-32-116-35v72" id="aX"/><g id="J"><use transform="matrix(0.05555555555555555,0,0,0.05555555555555555,0,0)" xlink:href="#aX"/><use transform="matrix(0.05555555555555555,0,0,0.05555555555555555,14.388888888888888,0)" xlink:href="#aM"/><use transform="matrix(0.05555555555555555,0,0,0.05555555555555555,26.555555555555554,0)" xlink:href="#as"/><use transform="matrix(0.05555555555555555,0,0,0.05555555555555555,37.666666666666664,0)" xlink:href="#aC"/><use transform="matrix(0.05555555555555555,0,0,0.05555555555555555,43.22222222222222,0)" xlink:href="#aA"/><use transform="matrix(0.05555555555555555,0,0,0.05555555555555555,55.388888888888886,0)" xlink:href="#at"/><use transform="matrix(0.05555555555555555,0,0,0.05555555555555555,66.5,0)" xlink:href="#as"/><use transform="matrix(0.05555555555555555,0,0,0.05555555555555555,77.61111111111111,0)" xlink:href="#as"/></g><g id="K"><use transform="matrix(0.05555555555555555,0,0,0.05555555555555555,0,0)" xlink:href="#ax"/><use transform="matrix(0.05555555555555555,0,0,0.05555555555555555,14.388888888888888,0)" xlink:href="#aF"/><use transform="matrix(0.05555555555555555,0,0,0.05555555555555555,25.5,0)" xlink:href="#as"/><use transform="matrix(0.05555555555555555,0,0,0.05555555555555555,36.611111111111114,0)" xlink:href="#at"/></g><g id="L"><use transform="matrix(0.05555555555555555,0,0,0.05555555555555555,0,0)" xlink:href="#aS"/><use transform="matrix(0.05555555555555555,0,0,0.05555555555555555,10.666666666666666,0)" xlink:href="#at"/><use transform="matrix(0.05555555555555555,0,0,0.05555555555555555,21.77777777777778,0)" xlink:href="#aJ"/><use transform="matrix(0.05555555555555555,0,0,0.05555555555555555,32.888888888888886,0)" xlink:href="#aK"/><use transform="matrix(0.05555555555555555,0,0,0.05555555555555555,45.05555555555555,0)" xlink:href="#aA"/><use transform="matrix(0.05555555555555555,0,0,0.05555555555555555,57.22222222222222,0)" xlink:href="#aC"/><use transform="matrix(0.05555555555555555,0,0,0.05555555555555555,62.77777777777777,0)" xlink:href="#aJ"/><use transform="matrix(0.05555555555555555,0,0,0.05555555555555555,73.88888888888889,0)" xlink:href="#aF"/><use transform="matrix(0.05555555555555555,0,0,0.05555555555555555,85,0)" xlink:href="#aG"/></g><path fill="#fff" d="M231 0h-52l-39-155L100 0H48L-1-190h46L77-45c9-52 24-97 36-145h53l37 145 32-145h46" id="aY"/><g id="M"><use transform="matrix(0.05555555555555555,0,0,0.05555555555555555,0,0)" xlink:href="#aB"/><use transform="matrix(0.05555555555555555,0,0,0.05555555555555555,6.611111111111111,0)" xlink:href="#au"/><use transform="matrix(0.05555555555555555,0,0,0.05555555555555555,14.388888888888888,0)" xlink:href="#aF"/><use transform="matrix(0.05555555555555555,0,0,0.05555555555555555,25.5,0)" xlink:href="#aL"/><use transform="matrix(0.05555555555555555,0,0,0.05555555555555555,43.27777777777778,0)" xlink:href="#at"/><use transform="matrix(0.05555555555555555,0,0,0.05555555555555555,54.388888888888886,0)" xlink:href="#aY"/><use transform="matrix(0.05555555555555555,0,0,0.05555555555555555,69.94444444444444,0)" xlink:href="#aI"/><use transform="matrix(0.05555555555555555,0,0,0.05555555555555555,82.11111111111111,0)" xlink:href="#au"/><use transform="matrix(0.05555555555555555,0,0,0.05555555555555555,89.88888888888889,0)" xlink:href="#av"/></g><g id="N"><use transform="matrix(0.05555555555555555,0,0,0.05555555555555555,0,0)" xlink:href="#aN"/><use transform="matrix(0.05555555555555555,0,0,0.05555555555555555,5.555555555555555,0)" xlink:href="#aA"/><use transform="matrix(0.05555555555555555,0,0,0.05555555555555555,17.72222222222222,0)" xlink:href="#aB"/><use transform="matrix(0.05555555555555555,0,0,0.05555555555555555,24.333333333333332,0)" xlink:href="#aI"/><use transform="matrix(0.05555555555555555,0,0,0.05555555555555555,36.5,0)" xlink:href="#au"/><use transform="matrix(0.05555555555555555,0,0,0.05555555555555555,44.27777777777778,0)" xlink:href="#aL"/><use transform="matrix(0.05555555555555555,0,0,0.05555555555555555,62.05555555555555,0)" xlink:href="#aF"/><use transform="matrix(0.05555555555555555,0,0,0.05555555555555555,73.16666666666667,0)" xlink:href="#aD"/><use transform="matrix(0.05555555555555555,0,0,0.05555555555555555,79.77777777777779,0)" xlink:href="#aC"/><use transform="matrix(0.05555555555555555,0,0,0.05555555555555555,85.33333333333334,0)" xlink:href="#aI"/><use transform="matrix(0.05555555555555555,0,0,0.05555555555555555,97.50000000000001,0)" xlink:href="#aA"/></g><g id="O"><use transform="matrix(0.05555555555555555,0,0,0.05555555555555555,0,0)" xlink:href="#ax"/><use transform="matrix(0.05555555555555555,0,0,0.05555555555555555,14.388888888888888,0)" xlink:href="#aI"/><use transform="matrix(0.05555555555555555,0,0,0.05555555555555555,26.555555555555554,0)" xlink:href="#aL"/><use transform="matrix(0.05555555555555555,0,0,0.05555555555555555,44.33333333333333,0)" xlink:href="#aL"/><use transform="matrix(0.05555555555555555,0,0,0.05555555555555555,62.11111111111111,0)" xlink:href="#at"/><use transform="matrix(0.05555555555555555,0,0,0.05555555555555555,73.22222222222221,0)" xlink:href="#au"/><use transform="matrix(0.05555555555555555,0,0,0.05555555555555555,80.99999999999999,0)" xlink:href="#aJ"/><use transform="matrix(0.05555555555555555,0,0,0.05555555555555555,92.1111111111111,0)" xlink:href="#aC"/><use transform="matrix(0.05555555555555555,0,0,0.05555555555555555,97.66666666666666,0)" xlink:href="#aF"/><use transform="matrix(0.05555555555555555,0,0,0.05555555555555555,108.77777777777777,0)" xlink:href="#aG"/></g><path fill="#fff" d="M140-251c80 0 125 45 125 126S219 4 139 4C58 4 15-44 15-125s44-126 125-126zm-1 214c52 0 73-35 73-88 0-50-21-86-72-86-52 0-73 35-73 86s22 88 72 88" id="aZ"/><g id="P"><use transform="matrix(0.05555555555555555,0,0,0.05555555555555555,0,0)" xlink:href="#aZ"/><use transform="matrix(0.05555555555555555,0,0,0.05555555555555555,15.555555555555555,0)" xlink:href="#aH"/><use transform="matrix(0.05555555555555555,0,0,0.05555555555555555,27.72222222222222,0)" xlink:href="#at"/><use transform="matrix(0.05555555555555555,0,0,0.05555555555555555,38.83333333333333,0)" xlink:href="#au"/><use transform="matrix(0.05555555555555555,0,0,0.05555555555555555,46.61111111111111,0)" xlink:href="#aF"/><use transform="matrix(0.05555555555555555,0,0,0.05555555555555555,57.72222222222222,0)" xlink:href="#aD"/><use transform="matrix(0.05555555555555555,0,0,0.05555555555555555,64.33333333333333,0)" xlink:href="#aC"/><use transform="matrix(0.05555555555555555,0,0,0.05555555555555555,69.88888888888889,0)" xlink:href="#aI"/><use transform="matrix(0.05555555555555555,0,0,0.05555555555555555,82.05555555555556,0)" xlink:href="#aA"/><use transform="matrix(0.05555555555555555,0,0,0.05555555555555555,94.22222222222223,0)" xlink:href="#aF"/><use transform="matrix(0.05555555555555555,0,0,0.05555555555555555,105.33333333333334,0)" xlink:href="#aG"/></g><g id="Q"><use transform="matrix(0.04938271604938272,0,0,0.04938271604938272,0,0)" xlink:href="#aN"/><use transform="matrix(0.04938271604938272,0,0,0.04938271604938272,4.938271604938272,0)" xlink:href="#as"/></g><g id="R"><use transform="matrix(0.04938271604938272,0,0,0.04938271604938272,0,0)" xlink:href="#as"/><use transform="matrix(0.04938271604938272,0,0,0.04938271604938272,9.876543209876544,0)" xlink:href="#aJ"/><use transform="matrix(0.04938271604938272,0,0,0.04938271604938272,19.75308641975309,0)" xlink:href="#aK"/><use transform="matrix(0.04938271604938272,0,0,0.04938271604938272,30.567901234567906,0)" xlink:href="#at"/><use transform="matrix(0.04938271604938272,0,0,0.04938271604938272,40.44444444444445,0)" xlink:href="#aL"/><use transform="matrix(0.04938271604938272,0,0,0.04938271604938272,56.24691358024692,0)" xlink:href="#at"/></g><g id="S"><use transform="matrix(0.05555555555555555,0,0,0.05555555555555555,0,0)" xlink:href="#ax"/><use transform="matrix(0.05555555555555555,0,0,0.05555555555555555,14.388888888888888,0)" xlink:href="#aI"/><use transform="matrix(0.05555555555555555,0,0,0.05555555555555555,26.555555555555554,0)" xlink:href="#aA"/><use transform="matrix(0.05555555555555555,0,0,0.05555555555555555,38.72222222222222,0)" xlink:href="#aJ"/><use transform="matrix(0.05555555555555555,0,0,0.05555555555555555,49.83333333333333,0)" xlink:href="#aG"/><use transform="matrix(0.05555555555555555,0,0,0.05555555555555555,55.388888888888886,0)" xlink:href="#aM"/><use transform="matrix(0.05555555555555555,0,0,0.05555555555555555,67.55555555555556,0)" xlink:href="#aQ"/><use transform="matrix(0.05555555555555555,0,0,0.05555555555555555,79.72222222222223,0)" xlink:href="#at"/></g><g id="T"><use transform="matrix(0.05555555555555555,0,0,0.05555555555555555,0,0)" xlink:href="#aF"/><use transform="matrix(0.05555555555555555,0,0,0.05555555555555555,11.11111111111111,0)" xlink:href="#aV"/><use transform="matrix(0.05555555555555555,0,0,0.05555555555555555,23.27777777777778,0)" xlink:href="#au"/><use transform="matrix(0.05555555555555555,0,0,0.05555555555555555,31.05555555555556,0)" xlink:href="#at"/><use transform="matrix(0.05555555555555555,0,0,0.05555555555555555,42.16666666666667,0)" xlink:href="#at"/><use transform="matrix(0.05555555555555555,0,0,0.05555555555555555,53.277777777777786,0)" xlink:href="#aL"/><use transform="matrix(0.05555555555555555,0,0,0.05555555555555555,71.05555555555557,0)" xlink:href="#at"/><use transform="matrix(0.05555555555555555,0,0,0.05555555555555555,82.16666666666669,0)" xlink:href="#aA"/><use transform="matrix(0.05555555555555555,0,0,0.05555555555555555,94.33333333333336,0)" xlink:href="#aD"/></g><g id="U"><use transform="matrix(0.05555555555555555,0,0,0.05555555555555555,0,0)" xlink:href="#az"/><use transform="matrix(0.05555555555555555,0,0,0.05555555555555555,12.166666666666666,0)" xlink:href="#at"/><use transform="matrix(0.05555555555555555,0,0,0.05555555555555555,23.27777777777778,0)" xlink:href="#aD"/><use transform="matrix(0.05555555555555555,0,0,0.05555555555555555,29.888888888888886,0)" xlink:href="#aY"/><use transform="matrix(0.05555555555555555,0,0,0.05555555555555555,45.44444444444444,0)" xlink:href="#at"/><use transform="matrix(0.05555555555555555,0,0,0.05555555555555555,56.55555555555556,0)" xlink:href="#at"/><use transform="matrix(0.05555555555555555,0,0,0.05555555555555555,67.66666666666667,0)" xlink:href="#aA"/></g><g id="V"><use transform="matrix(0.05555555555555555,0,0,0.05555555555555555,0,0)" xlink:href="#aH"/><use transform="matrix(0.05555555555555555,0,0,0.05555555555555555,12.166666666666666,0)" xlink:href="#aF"/><use transform="matrix(0.05555555555555555,0,0,0.05555555555555555,23.27777777777778,0)" xlink:href="#au"/><use transform="matrix(0.05555555555555555,0,0,0.05555555555555555,31.05555555555556,0)" xlink:href="#aD"/><use transform="matrix(0.05555555555555555,0,0,0.05555555555555555,37.66666666666667,0)" xlink:href="#aC"/><use transform="matrix(0.05555555555555555,0,0,0.05555555555555555,43.22222222222223,0)" xlink:href="#at"/><use transform="matrix(0.05555555555555555,0,0,0.05555555555555555,54.33333333333334,0)" xlink:href="#as"/></g><path fill="#fff" d="M76-54c-1 42 2 86-19 110H24C36 42 46 24 48 0H25v-54h51" id="ba"/><g id="W"><use transform="matrix(0.05555555555555555,0,0,0.05555555555555555,0,0)" xlink:href="#aN"/><use transform="matrix(0.05555555555555555,0,0,0.05555555555555555,5.555555555555555,0)" xlink:href="#aA"/><use transform="matrix(0.05555555555555555,0,0,0.05555555555555555,17.72222222222222,0)" xlink:href="#as"/><use transform="matrix(0.05555555555555555,0,0,0.05555555555555555,28.833333333333332,0)" xlink:href="#aD"/><use transform="matrix(0.05555555555555555,0,0,0.05555555555555555,35.44444444444444,0)" xlink:href="#aF"/><use transform="matrix(0.05555555555555555,0,0,0.05555555555555555,46.55555555555556,0)" xlink:href="#aG"/><use transform="matrix(0.05555555555555555,0,0,0.05555555555555555,52.111111111111114,0)" xlink:href="#aG"/><use transform="matrix(0.05555555555555555,0,0,0.05555555555555555,57.66666666666668,0)" xlink:href="#ba"/></g><g id="X"><use transform="matrix(0.05555555555555555,0,0,0.05555555555555555,0,0)" xlink:href="#aD"/><use transform="matrix(0.05555555555555555,0,0,0.05555555555555555,6.611111111111111,0)" xlink:href="#at"/><use transform="matrix(0.05555555555555555,0,0,0.05555555555555555,17.72222222222222,0)" xlink:href="#as"/><use transform="matrix(0.05555555555555555,0,0,0.05555555555555555,28.833333333333332,0)" xlink:href="#aD"/><use transform="matrix(0.05555555555555555,0,0,0.05555555555555555,35.44444444444444,0)" xlink:href="#ba"/></g><g id="Y"><use transform="matrix(0.05555555555555555,0,0,0.05555555555555555,0,0)" xlink:href="#aJ"/><use transform="matrix(0.05555555555555555,0,0,0.05555555555555555,11.11111111111111,0)" xlink:href="#aI"/><use transform="matrix(0.05555555555555555,0,0,0.05555555555555555,23.27777777777778,0)" xlink:href="#aL"/><use transform="matrix(0.05555555555555555,0,0,0.05555555555555555,41.05555555555556,0)" xlink:href="#aL"/><use transform="matrix(0.05555555555555555,0,0,0.05555555555555555,58.83333333333333,0)" xlink:href="#aC"/><use transform="matrix(0.05555555555555555,0,0,0.05555555555555555,64.38888888888889,0)" xlink:href="#as"/><use transform="matrix(0.05555555555555555,0,0,0.05555555555555555,75.5,0)" xlink:href="#as"/><use transform="matrix(0.05555555555555555,0,0,0.05555555555555555,86.61111111111111,0)" xlink:href="#aC"/><use transform="matrix(0.05555555555555555,0,0,0.05555555555555555,92.16666666666667,0)" xlink:href="#aI"/><use transform="matrix(0.05555555555555555,0,0,0.05555555555555555,104.33333333333334,0)" xlink:href="#aA"/></g><g id="Z"><use transform="matrix(0.05555555555555555,0,0,0.05555555555555555,0,0)" xlink:href="#ay"/><use transform="matrix(0.05555555555555555,0,0,0.05555555555555555,16.61111111111111,0)" xlink:href="#aI"/><use transform="matrix(0.05555555555555555,0,0,0.05555555555555555,28.777777777777775,0)" xlink:href="#aA"/><use transform="matrix(0.05555555555555555,0,0,0.05555555555555555,40.94444444444444,0)" xlink:href="#aC"/><use transform="matrix(0.05555555555555555,0,0,0.05555555555555555,46.5,0)" xlink:href="#aD"/><use transform="matrix(0.05555555555555555,0,0,0.05555555555555555,53.111111111111114,0)" xlink:href="#aI"/><use transform="matrix(0.05555555555555555,0,0,0.05555555555555555,65.27777777777779,0)" xlink:href="#au"/></g><g id="aa"><use transform="matrix(0.05555555555555555,0,0,0.05555555555555555,0,0)" xlink:href="#aI"/><use transform="matrix(0.05555555555555555,0,0,0.05555555555555555,12.166666666666666,0)" xlink:href="#aH"/><use transform="matrix(0.05555555555555555,0,0,0.05555555555555555,24.333333333333332,0)" xlink:href="#at"/><use transform="matrix(0.05555555555555555,0,0,0.05555555555555555,35.44444444444444,0)" xlink:href="#au"/><use transform="matrix(0.05555555555555555,0,0,0.05555555555555555,43.22222222222222,0)" xlink:href="#aF"/><use transform="matrix(0.05555555555555555,0,0,0.05555555555555555,54.33333333333333,0)" xlink:href="#aD"/><use transform="matrix(0.05555555555555555,0,0,0.05555555555555555,60.94444444444444,0)" xlink:href="#aC"/><use transform="matrix(0.05555555555555555,0,0,0.05555555555555555,66.5,0)" xlink:href="#aI"/><use transform="matrix(0.05555555555555555,0,0,0.05555555555555555,78.66666666666667,0)" xlink:href="#aA"/><use transform="matrix(0.05555555555555555,0,0,0.05555555555555555,90.83333333333334,0)" xlink:href="#aF"/><use transform="matrix(0.05555555555555555,0,0,0.05555555555555555,101.94444444444446,0)" xlink:href="#aG"/></g><g id="ab"><use transform="matrix(0.05555555555555555,0,0,0.05555555555555555,0,0)" xlink:href="#as"/><use transform="matrix(0.05555555555555555,0,0,0.05555555555555555,11.11111111111111,0)" xlink:href="#aO"/><use transform="matrix(0.05555555555555555,0,0,0.05555555555555555,22.22222222222222,0)" xlink:href="#as"/><use transform="matrix(0.05555555555555555,0,0,0.05555555555555555,33.33333333333333,0)" xlink:href="#aD"/><use transform="matrix(0.05555555555555555,0,0,0.05555555555555555,39.94444444444444,0)" xlink:href="#at"/><use transform="matrix(0.05555555555555555,0,0,0.05555555555555555,51.05555555555556,0)" xlink:href="#aL"/></g><path fill="#fff" d="M24 0v-248h52v208h133V0H24" id="bb"/><g id="ac"><use transform="matrix(0.05555555555555555,0,0,0.05555555555555555,0,0)" xlink:href="#bb"/><use transform="matrix(0.05555555555555555,0,0,0.05555555555555555,12.166666666666666,0)" xlink:href="#at"/><use transform="matrix(0.05555555555555555,0,0,0.05555555555555555,23.27777777777778,0)" xlink:href="#aF"/><use transform="matrix(0.05555555555555555,0,0,0.05555555555555555,34.388888888888886,0)" xlink:href="#au"/><use transform="matrix(0.05555555555555555,0,0,0.05555555555555555,42.166666666666664,0)" xlink:href="#aA"/></g><path fill="#fff" d="M168-19C124 19 11 11 16-68c3-43 29-60 59-75-25-44-12-111 53-106 37 3 64 15 64 52 0 43-40 52-69 68 12 22 27 41 43 59 14-19 21-38 28-64l37 13c-8 29-19 52-34 74 12 10 32 16 52 10v35c-28 11-65-2-81-17zm-58-139c19-9 43-14 43-39 0-14-10-22-25-22-34 0-33 41-18 61zM60-68c-3 40 55 47 79 25-18-20-34-42-48-67-18 8-30 20-31 42" id="bc"/><use transform="matrix(0.05555555555555555,0,0,0.05555555555555555,0,0)" xlink:href="#bc" id="ad"/><g id="ae"><use transform="matrix(0.05555555555555555,0,0,0.05555555555555555,0,0)" xlink:href="#aF"/><use transform="matrix(0.05555555555555555,0,0,0.05555555555555555,11.11111111111111,0)" xlink:href="#aH"/><use transform="matrix(0.05555555555555555,0,0,0.05555555555555555,23.27777777777778,0)" xlink:href="#aH"/><use transform="matrix(0.05555555555555555,0,0,0.05555555555555555,35.44444444444444,0)" xlink:href="#aG"/><use transform="matrix(0.05555555555555555,0,0,0.05555555555555555,41,0)" xlink:href="#aO"/></g><g id="af"><use transform="matrix(0.05555555555555555,0,0,0.05555555555555555,0,0)" xlink:href="#aG"/><use transform="matrix(0.05555555555555555,0,0,0.05555555555555555,5.555555555555555,0)" xlink:href="#at"/><use transform="matrix(0.05555555555555555,0,0,0.05555555555555555,16.666666666666664,0)" xlink:href="#as"/><use transform="matrix(0.05555555555555555,0,0,0.05555555555555555,27.777777777777775,0)" xlink:href="#as"/><use transform="matrix(0.05555555555555555,0,0,0.05555555555555555,38.888888888888886,0)" xlink:href="#aI"/><use transform="matrix(0.05555555555555555,0,0,0.05555555555555555,51.05555555555555,0)" xlink:href="#aA"/><use transform="matrix(0.05555555555555555,0,0,0.05555555555555555,63.22222222222222,0)" xlink:href="#as"/></g><g id="ag"><use transform="matrix(0.05555555555555555,0,0,0.05555555555555555,0,0)" xlink:href="#aI"/><use transform="matrix(0.05555555555555555,0,0,0.05555555555555555,12.166666666666666,0)" xlink:href="#aA"/></g><g id="ah"><use transform="matrix(0.05555555555555555,0,0,0.05555555555555555,0,0)" xlink:href="#as"/><use transform="matrix(0.05555555555555555,0,0,0.05555555555555555,11.11111111111111,0)" xlink:href="#aJ"/><use transform="matrix(0.05555555555555555,0,0,0.05555555555555555,22.22222222222222,0)" xlink:href="#aK"/><use transform="matrix(0.05555555555555555,0,0,0.05555555555555555,34.388888888888886,0)" xlink:href="#at"/><use transform="matrix(0.05555555555555555,0,0,0.05555555555555555,45.5,0)" xlink:href="#aL"/><use transform="matrix(0.05555555555555555,0,0,0.05555555555555555,63.27777777777777,0)" xlink:href="#at"/></g><g id="ai"><use transform="matrix(0.05555555555555555,0,0,0.05555555555555555,0,0)" xlink:href="#aE"/><use transform="matrix(0.05555555555555555,0,0,0.05555555555555555,13.333333333333332,0)" xlink:href="#aJ"/><use transform="matrix(0.05555555555555555,0,0,0.05555555555555555,24.444444444444443,0)" xlink:href="#aK"/><use transform="matrix(0.05555555555555555,0,0,0.05555555555555555,36.61111111111111,0)" xlink:href="#at"/><use transform="matrix(0.05555555555555555,0,0,0.05555555555555555,47.722222222222214,0)" xlink:href="#aL"/><use transform="matrix(0.05555555555555555,0,0,0.05555555555555555,65.5,0)" xlink:href="#at"/></g><g id="aj"><use transform="matrix(0.05555555555555555,0,0,0.05555555555555555,0,0)" xlink:href="#aF"/><use transform="matrix(0.05555555555555555,0,0,0.05555555555555555,11.11111111111111,0)" xlink:href="#az"/><use transform="matrix(0.05555555555555555,0,0,0.05555555555555555,23.27777777777778,0)" xlink:href="#aF"/><use transform="matrix(0.05555555555555555,0,0,0.05555555555555555,34.388888888888886,0)" xlink:href="#aA"/><use transform="matrix(0.05555555555555555,0,0,0.05555555555555555,46.55555555555555,0)" xlink:href="#aQ"/><use transform="matrix(0.05555555555555555,0,0,0.05555555555555555,58.72222222222222,0)" xlink:href="#aI"/><use transform="matrix(0.05555555555555555,0,0,0.05555555555555555,70.88888888888889,0)" xlink:href="#aA"/><use transform="matrix(0.05555555555555555,0,0,0.05555555555555555,83.05555555555556,0)" xlink:href="#at"/><use transform="matrix(0.05555555555555555,0,0,0.05555555555555555,94.16666666666667,0)" xlink:href="#aQ"/></g><g id="ak"><use transform="matrix(0.05555555555555555,0,0,0.05555555555555555,0,0)" xlink:href="#aX"/><use transform="matrix(0.05555555555555555,0,0,0.05555555555555555,14.388888888888888,0)" xlink:href="#at"/><use transform="matrix(0.05555555555555555,0,0,0.05555555555555555,25.5,0)" xlink:href="#aA"/><use transform="matrix(0.05555555555555555,0,0,0.05555555555555555,37.666666666666664,0)" xlink:href="#at"/><use transform="matrix(0.05555555555555555,0,0,0.05555555555555555,48.77777777777777,0)" xlink:href="#aB"/><use transform="matrix(0.05555555555555555,0,0,0.05555555555555555,55.388888888888886,0)" xlink:href="#aC"/><use transform="matrix(0.05555555555555555,0,0,0.05555555555555555,60.94444444444444,0)" xlink:href="#aD"/><use transform="matrix(0.05555555555555555,0,0,0.05555555555555555,67.55555555555556,0)" xlink:href="#as"/></g><path fill="#fff" d="M199 0l-22-63H83L61 0H9l90-248h61L250 0h-51zm-33-102l-36-108c-10 38-24 72-36 108h72" id="bd"/><g id="al"><use transform="matrix(0.05555555555555555,0,0,0.05555555555555555,0,0)" xlink:href="#bd"/><use transform="matrix(0.05555555555555555,0,0,0.05555555555555555,14.388888888888888,0)" xlink:href="#aJ"/><use transform="matrix(0.05555555555555555,0,0,0.05555555555555555,25.5,0)" xlink:href="#aK"/><use transform="matrix(0.05555555555555555,0,0,0.05555555555555555,37.666666666666664,0)" xlink:href="#aC"/><use transform="matrix(0.05555555555555555,0,0,0.05555555555555555,43.22222222222222,0)" xlink:href="#at"/><use transform="matrix(0.05555555555555555,0,0,0.05555555555555555,54.33333333333333,0)" xlink:href="#aU"/><use transform="matrix(0.05555555555555555,0,0,0.05555555555555555,65.44444444444444,0)" xlink:href="#at"/><use transform="matrix(0.05555555555555555,0,0,0.05555555555555555,76.55555555555556,0)" xlink:href="#aQ"/></g><g id="am"><use transform="matrix(0.05555555555555555,0,0,0.05555555555555555,0,0)" xlink:href="#aw"/><use transform="matrix(0.05555555555555555,0,0,0.05555555555555555,14.388888888888888,0)" xlink:href="#ax"/><use transform="matrix(0.05555555555555555,0,0,0.05555555555555555,28.777777777777775,0)" xlink:href="#ay"/></g><g id="an"><use transform="matrix(0.05555555555555555,0,0,0.05555555555555555,0,0)" xlink:href="#as"/><use transform="matrix(0.05555555555555555,0,0,0.05555555555555555,11.11111111111111,0)" xlink:href="#aO"/><use transform="matrix(0.05555555555555555,0,0,0.05555555555555555,22.22222222222222,0)" xlink:href="#as"/><use transform="matrix(0.05555555555555555,0,0,0.05555555555555555,33.33333333333333,0)" xlink:href="#aD"/><use transform="matrix(0.05555555555555555,0,0,0.05555555555555555,39.94444444444444,0)" xlink:href="#at"/><use transform="matrix(0.05555555555555555,0,0,0.05555555555555555,51.05555555555556,0)" xlink:href="#aL"/></g><g id="ao"><use transform="matrix(0.05555555555555555,0,0,0.05555555555555555,0,0)" xlink:href="#aC"/><use transform="matrix(0.05555555555555555,0,0,0.05555555555555555,5.555555555555555,0)" xlink:href="#aL"/><use transform="matrix(0.05555555555555555,0,0,0.05555555555555555,23.333333333333336,0)" xlink:href="#aH"/><use transform="matrix(0.05555555555555555,0,0,0.05555555555555555,35.5,0)" xlink:href="#au"/><use transform="matrix(0.05555555555555555,0,0,0.05555555555555555,43.27777777777778,0)" xlink:href="#aI"/><use transform="matrix(0.05555555555555555,0,0,0.05555555555555555,55.44444444444444,0)" xlink:href="#aU"/><use transform="matrix(0.05555555555555555,0,0,0.05555555555555555,66.55555555555556,0)" xlink:href="#at"/><use transform="matrix(0.05555555555555555,0,0,0.05555555555555555,77.66666666666667,0)" xlink:href="#aQ"/></g><path fill="#fff" d="M146-102V0H94v-102L6-248h54l60 105 60-105h54" id="be"/><g id="ap"><use transform="matrix(0.05555555555555555,0,0,0.05555555555555555,0,0)" xlink:href="#be"/><use transform="matrix(0.05555555555555555,0,0,0.05555555555555555,12.222222222222221,0)" xlink:href="#at"/><use transform="matrix(0.05555555555555555,0,0,0.05555555555555555,23.333333333333332,0)" xlink:href="#as"/></g><path fill="#fff" d="M175 0L67-191c6 58 2 128 3 191H24v-248h59L193-55c-6-58-2-129-3-193h46V0h-61" id="bf"/><g id="aq"><use transform="matrix(0.05555555555555555,0,0,0.05555555555555555,0,0)" xlink:href="#bf"/><use transform="matrix(0.05555555555555555,0,0,0.05555555555555555,14.388888888888888,0)" xlink:href="#aI"/></g></defs></g></svg>