<svg xmlns="http://www.w3.org/2000/svg" xmlns:xlink="http://www.w3.org/1999/xlink" xmlns:lucid="lucid" width="909.95" height="355.59"><g transform="translate(0 1100)" lucid:page-tab-id="LrPOAwslHNnA"><a xlink:href="http://docs2.imprcm.vivacityrail.com/investigate.html#investigate-an-xircm-opportunity" target="_top"><path d="M20-959.8h151.18v75.6H20z" stroke="#000" stroke-opacity="0" stroke-width=".5" fill="#141b4d"/><use xlink:href="#a" transform="matrix(1,0,0,1,25,-954.7952755905512) translate(18.88888888888888 37)"/><path class="lucid-link lucid-hotspot lucid-overlay-hotspot" d="M20-959.8h151.18v75.6H20z" fill="none"/></a><a xlink:href="http://docs2.imprcm.vivacityrail.com/sponsor.html#act-as-sponsor-for-an-xircm-scheme" target="_top"><path d="M259.6-960h151.17v75.6H259.6z" stroke="#000" stroke-opacity="0" stroke-width=".5" fill="#005eb8"/><use xlink:href="#b" transform="matrix(1,0,0,1,264.59055118110234,-955) translate(30.555555555555557 37)"/><path class="lucid-link lucid-hotspot lucid-overlay-hotspot" d="M259.6-960h151.17v75.6H259.6z" fill="none"/></a><a xlink:href="http://docs2.imprcm.vivacityrail.com/model.html" target="_top"><path d="M498.77-1080h151.18v75.6H498.77z" stroke="#000" stroke-opacity="0" stroke-width=".5" fill="#00968e"/><use xlink:href="#c" transform="matrix(1,0,0,1,503.7716535433069,-1075) translate(42.19444444444444 37)"/><path class="lucid-link lucid-hotspot lucid-overlay-hotspot" d="M498.77-1080h151.18v75.6H498.77z" fill="none"/></a><a xlink:href="http://docs2.imprcm.vivacityrail.com/commercial.html#strike-a-commercial-agreement-for-an-xircm-scheme" target="_top"><path d="M499.18-960h151.18v75.6H499.18z" stroke="#000" stroke-opacity="0" stroke-width=".5" fill="#00879b"/><use xlink:href="#d" transform="matrix(1,0,0,1,504.18110236220457,-955) translate(13.833333333333336 37)"/><path class="lucid-link lucid-hotspot lucid-overlay-hotspot" d="M499.18-960h151.18v75.6H499.18z" fill="none"/></a><a xlink:href="http://docs2.imprcm.vivacityrail.com/technical.html#set-up-technical-aspects-of-an-xircm-scheme" target="_top"><path d="M499.6-840h151.17v75.6H499.6z" stroke="#000" stroke-opacity="0" stroke-width=".5" fill="#006272"/><use xlink:href="#e" transform="matrix(1,0,0,1,504.5905511811022,-835) translate(25.72222222222222 37)"/><path class="lucid-link lucid-hotspot lucid-overlay-hotspot" d="M499.6-840h151.17v75.6H499.6z" fill="none"/></a><a xlink:href="http://docs2.imprcm.vivacityrail.com/implement.html#implement-an-xircm-scheme" target="_top"><path d="M738.77-960h151.18v75.6H738.77z" stroke="#000" stroke-opacity="0" stroke-width=".5" fill="#7fc31c"/><use xlink:href="#f" transform="matrix(1,0,0,1,743.7716535433069,-955) translate(21.08333333333332 37)"/><path class="lucid-link lucid-hotspot lucid-overlay-hotspot" d="M738.77-960h151.18v75.6H738.77z" fill="none"/></a><path d="M171.18-922l70.17-.16" stroke="#000" stroke-width="2" fill="none"/><path d="M171.18-921v-1zM256.35-922.2l-14.25 4.67-.02-9.27z"/><path d="M259.6-922.2l-18.5 6.05-.03-12.02zm-16.5 3.3l10.02-3.3-10.04-3.23z"/><path d="M410.77-922.2L488-1027.5" stroke="#000" stroke-width="2" fill="none"/><path d="M411.58-921.6l-.8 1.1v-1.7zM492.16-1025.35l-7.48-5.48 12.18-8.77z"/><path d="M492.68-1023.73l-9.7-7.1 15.8-11.37zm-6.3-7.1l5.26 3.86 3.3-10.02z"/><path d="M410.77-922.2h70.18" stroke="#000" stroke-width="2" fill="none"/><path/><path d="M495.95-922.2l-14.27 4.63v-9.27z"/><path d="M499.18-922.2l-18.5 6v-12.02zm-16.5 3.25l10.03-3.25-10.02-3.26z"/><path d="M410.77-922.2l77.97 105.34" stroke="#000" stroke-width="2" fill="none"/><path d="M411.58-922.8l-.8.6v-1.7zM497.67-804.8l-12.22-8.7 7.45-5.53z"/><path d="M499.6-802.2l-15.85-11.3 9.67-7.15zm-12.45-11.33l8.6 6.12-3.36-10z"/><path d="M649.95-1042.2l77.97 105.34" stroke="#000" stroke-width="2" fill="none"/><path d="M650.76-1042.8l-.8.6v-1.7zM736.85-924.8l-12.22-8.7 7.46-5.53z"/><path d="M738.77-922.2l-15.84-11.3 9.67-7.15zm-12.44-11.33l8.6 6.12-3.36-10z"/><path d="M650.36-922.2h70.18" stroke="#000" stroke-width="2" fill="none"/><path/><path d="M735.54-922.2l-14.27 4.63v-9.27z"/><path d="M738.77-922.2l-18.5 6v-12.02zm-16.5 3.25l10.03-3.25-10.03-3.26z"/><path d="M650.77-802.2L728-907.5" stroke="#000" stroke-width="2" fill="none"/><path d="M651.58-801.6l-.8 1.1v-1.7zM732.16-905.35l-7.48-5.48 12.18-8.77z"/><path d="M732.68-903.73l-9.7-7.1 15.8-11.37zm-6.3-7.1l5.26 3.86 3.3-10.02z"/><defs><path fill="#fff" d="M24 0v-248h52V0H24" id="g"/><path fill="#fff" d="M135-194c87-1 58 113 63 194h-50c-7-57 23-157-34-157-59 0-34 97-39 157H25l-1-190h47c2 12-1 28 3 38 12-26 28-41 61-42" id="h"/><path fill="#fff" d="M128 0H69L1-190h53L99-40l48-150h52" id="i"/><path fill="#fff" d="M185-48c-13 30-37 53-82 52C43 2 14-33 14-96s30-98 90-98c62 0 83 45 84 108H66c0 31 8 55 39 56 18 0 30-7 34-22zm-45-69c5-46-57-63-70-21-2 6-4 13-4 21h74" id="j"/><path fill="#fff" d="M137-138c1-29-70-34-71-4 15 46 118 7 119 86 1 83-164 76-172 9l43-7c4 19 20 25 44 25 33 8 57-30 24-41C81-84 22-81 20-136c-2-80 154-74 161-7" id="k"/><path fill="#fff" d="M115-3C79 11 28 4 28-45v-112H4v-33h27l15-45h31v45h36v33H77v99c-1 23 16 31 38 25v30" id="l"/><path fill="#fff" d="M25-224v-37h50v37H25zM25 0v-190h50V0H25" id="m"/><path fill="#fff" d="M195-6C206 82 75 100 31 46c-4-6-6-13-8-21l49-6c3 16 16 24 34 25 40 0 42-37 40-79-11 22-30 35-61 35-53 0-70-43-70-97 0-56 18-96 73-97 30 0 46 14 59 34l2-30h47zm-90-29c32 0 41-27 41-63 0-35-9-62-40-62-32 0-39 29-40 63 0 36 9 62 39 62" id="n"/><path fill="#fff" d="M133-34C117-15 103 5 69 4 32 3 11-16 11-54c-1-60 55-63 116-61 1-26-3-47-28-47-18 1-26 9-28 27l-52-2c7-38 36-58 82-57s74 22 75 68l1 82c-1 14 12 18 25 15v27c-30 8-71 5-69-32zm-48 3c29 0 43-24 42-57-32 0-66-3-65 30 0 17 8 27 23 27" id="o"/><g id="a"><use transform="matrix(0.05555555555555555,0,0,0.05555555555555555,0,0)" xlink:href="#g"/><use transform="matrix(0.05555555555555555,0,0,0.05555555555555555,5.555555555555555,0)" xlink:href="#h"/><use transform="matrix(0.05555555555555555,0,0,0.05555555555555555,17.72222222222222,0)" xlink:href="#i"/><use transform="matrix(0.05555555555555555,0,0,0.05555555555555555,28.833333333333332,0)" xlink:href="#j"/><use transform="matrix(0.05555555555555555,0,0,0.05555555555555555,39.94444444444444,0)" xlink:href="#k"/><use transform="matrix(0.05555555555555555,0,0,0.05555555555555555,51.05555555555556,0)" xlink:href="#l"/><use transform="matrix(0.05555555555555555,0,0,0.05555555555555555,57.66666666666668,0)" xlink:href="#m"/><use transform="matrix(0.05555555555555555,0,0,0.05555555555555555,63.22222222222223,0)" xlink:href="#n"/><use transform="matrix(0.05555555555555555,0,0,0.05555555555555555,75.3888888888889,0)" xlink:href="#o"/><use transform="matrix(0.05555555555555555,0,0,0.05555555555555555,86.50000000000001,0)" xlink:href="#l"/><use transform="matrix(0.05555555555555555,0,0,0.05555555555555555,93.11111111111113,0)" xlink:href="#j"/></g><path fill="#fff" d="M169-182c-1-43-94-46-97-3 18 66 151 10 154 114 3 95-165 93-204 36-6-8-10-19-12-30l50-8c3 46 112 56 116 5-17-69-150-10-154-114-4-87 153-88 188-35 5 8 8 18 10 28" id="p"/><path fill="#fff" d="M135-194c53 0 70 44 70 98 0 56-19 98-73 100-31 1-45-17-59-34 3 33 2 69 2 105H25l-1-265h48c2 10 0 23 3 31 11-24 29-35 60-35zM114-30c33 0 39-31 40-66 0-38-9-64-40-64-56 0-55 130 0 130" id="q"/><path fill="#fff" d="M110-194c64 0 96 36 96 99 0 64-35 99-97 99-61 0-95-36-95-99 0-62 34-99 96-99zm-1 164c35 0 45-28 45-65 0-40-10-65-43-65-34 0-45 26-45 65 0 36 10 65 43 65" id="r"/><path fill="#fff" d="M135-150c-39-12-60 13-60 57V0H25l-1-190h47c2 13-1 29 3 40 6-28 27-53 61-41v41" id="s"/><g id="b"><use transform="matrix(0.05555555555555555,0,0,0.05555555555555555,0,0)" xlink:href="#p"/><use transform="matrix(0.05555555555555555,0,0,0.05555555555555555,13.333333333333332,0)" xlink:href="#q"/><use transform="matrix(0.05555555555555555,0,0,0.05555555555555555,25.5,0)" xlink:href="#r"/><use transform="matrix(0.05555555555555555,0,0,0.05555555555555555,37.666666666666664,0)" xlink:href="#h"/><use transform="matrix(0.05555555555555555,0,0,0.05555555555555555,49.83333333333333,0)" xlink:href="#k"/><use transform="matrix(0.05555555555555555,0,0,0.05555555555555555,60.94444444444444,0)" xlink:href="#r"/><use transform="matrix(0.05555555555555555,0,0,0.05555555555555555,73.11111111111111,0)" xlink:href="#s"/></g><path fill="#fff" d="M230 0l2-204L168 0h-37L68-204 70 0H24v-248h70l56 185 57-185h69V0h-46" id="t"/><path fill="#fff" d="M88-194c31-1 46 15 58 34l-1-101h50l1 261h-48c-2-10 0-23-3-31C134-8 116 4 84 4 32 4 16-41 15-95c0-56 19-97 73-99zm17 164c33 0 40-30 41-66 1-37-9-64-41-64s-38 30-39 65c0 43 13 65 39 65" id="u"/><path fill="#fff" d="M25 0v-261h50V0H25" id="v"/><g id="c"><use transform="matrix(0.05555555555555555,0,0,0.05555555555555555,0,0)" xlink:href="#t"/><use transform="matrix(0.05555555555555555,0,0,0.05555555555555555,16.61111111111111,0)" xlink:href="#r"/><use transform="matrix(0.05555555555555555,0,0,0.05555555555555555,28.777777777777775,0)" xlink:href="#u"/><use transform="matrix(0.05555555555555555,0,0,0.05555555555555555,40.94444444444444,0)" xlink:href="#j"/><use transform="matrix(0.05555555555555555,0,0,0.05555555555555555,52.05555555555556,0)" xlink:href="#v"/></g><path fill="#fff" d="M67-125c0 53 21 87 73 88 37 1 54-22 65-47l45 17C233-25 199 4 140 4 58 4 20-42 15-125 8-235 124-281 211-232c18 10 29 29 36 50l-46 12c-8-25-30-41-62-41-52 0-71 34-72 86" id="w"/><path fill="#fff" d="M220-157c-53 9-28 100-34 157h-49v-107c1-27-5-49-29-50C55-147 81-57 75 0H25l-1-190h47c2 12-1 28 3 38 10-53 101-56 108 0 13-22 24-43 59-42 82 1 51 116 57 194h-49v-107c-1-25-5-48-29-50" id="x"/><path fill="#fff" d="M190-63c-7 42-38 67-86 67-59 0-84-38-90-98-12-110 154-137 174-36l-49 2c-2-19-15-32-35-32-30 0-35 28-38 64-6 74 65 87 74 30" id="y"/><g id="d"><use transform="matrix(0.05555555555555555,0,0,0.05555555555555555,0,0)" xlink:href="#w"/><use transform="matrix(0.05555555555555555,0,0,0.05555555555555555,14.388888888888888,0)" xlink:href="#r"/><use transform="matrix(0.05555555555555555,0,0,0.05555555555555555,26.555555555555554,0)" xlink:href="#x"/><use transform="matrix(0.05555555555555555,0,0,0.05555555555555555,44.33333333333333,0)" xlink:href="#x"/><use transform="matrix(0.05555555555555555,0,0,0.05555555555555555,62.11111111111111,0)" xlink:href="#j"/><use transform="matrix(0.05555555555555555,0,0,0.05555555555555555,73.22222222222221,0)" xlink:href="#s"/><use transform="matrix(0.05555555555555555,0,0,0.05555555555555555,80.99999999999999,0)" xlink:href="#y"/><use transform="matrix(0.05555555555555555,0,0,0.05555555555555555,92.1111111111111,0)" xlink:href="#m"/><use transform="matrix(0.05555555555555555,0,0,0.05555555555555555,97.66666666666666,0)" xlink:href="#o"/><use transform="matrix(0.05555555555555555,0,0,0.05555555555555555,108.77777777777777,0)" xlink:href="#v"/></g><path fill="#fff" d="M136-208V0H84v-208H4v-40h212v40h-80" id="z"/><path fill="#fff" d="M114-157C55-157 80-60 75 0H25v-261h50l-1 109c12-26 28-41 61-42 86-1 58 113 63 194h-50c-7-57 23-157-34-157" id="A"/><g id="e"><use transform="matrix(0.05555555555555555,0,0,0.05555555555555555,0,0)" xlink:href="#z"/><use transform="matrix(0.05555555555555555,0,0,0.05555555555555555,10.666666666666666,0)" xlink:href="#j"/><use transform="matrix(0.05555555555555555,0,0,0.05555555555555555,21.77777777777778,0)" xlink:href="#y"/><use transform="matrix(0.05555555555555555,0,0,0.05555555555555555,32.888888888888886,0)" xlink:href="#A"/><use transform="matrix(0.05555555555555555,0,0,0.05555555555555555,45.05555555555555,0)" xlink:href="#h"/><use transform="matrix(0.05555555555555555,0,0,0.05555555555555555,57.22222222222222,0)" xlink:href="#m"/><use transform="matrix(0.05555555555555555,0,0,0.05555555555555555,62.77777777777777,0)" xlink:href="#y"/><use transform="matrix(0.05555555555555555,0,0,0.05555555555555555,73.88888888888889,0)" xlink:href="#o"/><use transform="matrix(0.05555555555555555,0,0,0.05555555555555555,85,0)" xlink:href="#v"/></g><g id="f"><use transform="matrix(0.05555555555555555,0,0,0.05555555555555555,0,0)" xlink:href="#g"/><use transform="matrix(0.05555555555555555,0,0,0.05555555555555555,5.555555555555555,0)" xlink:href="#x"/><use transform="matrix(0.05555555555555555,0,0,0.05555555555555555,23.333333333333336,0)" xlink:href="#q"/><use transform="matrix(0.05555555555555555,0,0,0.05555555555555555,35.5,0)" xlink:href="#v"/><use transform="matrix(0.05555555555555555,0,0,0.05555555555555555,41.05555555555556,0)" xlink:href="#j"/><use transform="matrix(0.05555555555555555,0,0,0.05555555555555555,52.16666666666667,0)" xlink:href="#x"/><use transform="matrix(0.05555555555555555,0,0,0.05555555555555555,69.94444444444446,0)" xlink:href="#j"/><use transform="matrix(0.05555555555555555,0,0,0.05555555555555555,81.05555555555557,0)" xlink:href="#h"/><use transform="matrix(0.05555555555555555,0,0,0.05555555555555555,93.22222222222224,0)" xlink:href="#l"/></g></defs></g></svg>